<?xml version="1.0" encoding="utf-8"?>
<!-- Generator: Adobe Illustrator 25.4.1, SVG Export Plug-In . SVG Version: 6.00 Build 0)  -->
<svg version="1.1" id="レイヤー_1" xmlns="http://www.w3.org/2000/svg" xmlns:xlink="http://www.w3.org/1999/xlink" x="0px"
	 y="0px" viewBox="0 0 595.28 841.89" style="enable-background:new 0 0 595.28 841.89;" xml:space="preserve">
<style type="text/css">
	.st0{fill:none;}
</style>
<path d="M451.14,561.88c-2.64-0.15-5.07-0.37-7.5-0.4c-2.04-0.02-4.04,0.85-6.1-0.52c-0.8-0.53-2.29-0.1-3.46,0.01
	c-8.01,0.78-16.01,1.18-24.08,0.66c-3.09-0.2-6.27,1.27-9.4,1.26c-6.33-0.03-12.42,2.67-18.92,1.15c-2.37-0.55-5.16,0.55-7.74,1.02
	c-3.54,0.65-7.04,1.46-10.58,2.1c-3.67,0.66-7.37,1.72-11.04,1.65c-5.07-0.09-10.17,1.61-15.23-0.24c-2.56-0.94-3.24-2.15-2.1-4.63
	c0.26-0.57,0.49-1.2,0.52-1.82c0.24-4.45,2.42-7.92,6.27-9.73c4.87-2.28,9.98-4.15,15.15-5.64c4.9-1.41,9.99-2.19,15.02-3.07
	c5.18-0.9,10.38-1.82,15.61-2.31c5.09-0.48,10.24-0.34,15.36-0.65c2.53-0.15,5.02-0.74,7.54-1.08c4.03-0.54,8.06-1.21,12.11-1.5
	c5.02-0.35,10.06-0.31,15.09-0.55c5.62-0.26,11.23-0.9,16.85-0.89c4.21,0.01,8.46,0.57,12.6,1.33c1.27,0.23,2.46,1.82,3.35,3.03
	c1.31,1.79,2.85,1.84,4.81,1.49c2.82-0.5,5.69-0.88,8.55-1.01c2.27-0.11,4.77,3.19,4.65,5.76c-0.12,2.45-0.28,4.89-0.4,7.34
	c-0.01,0.29,0.13,0.58,0.23,0.98c0.46-0.59,0.83-1.05,1.19-1.52c0.37,0.46,1,0.9,1.05,1.39c0.07,0.7-0.28,1.44-0.52,2.44
	c0,0,0.32,0.3,0.63,0.6c-0.06,0.11-0.12,0.21-0.18,0.32c-0.51-0.22-1.28-0.31-1.49-0.7c-0.88-1.62-1.53-0.98-2.47-0.04
	c-2.15,2.15-4.57,4.05-6.57,6.33c-2,2.28-3.63,4.88-5.41,7.35c-1.01,1.4-1.95,2.84-2.99,4.22c-3.15,4.2-6.29,8.41-10.97,11.12
	c-0.56,0.32-0.89,1.09-1.25,1.7c-2.35,4.03-5.25,7.5-9.6,9.51c-0.36,0.17-0.75,0.34-1.01,0.61c-3.83,3.9-7.68,7.78-11.44,11.75
	c-2.76,2.91-5.47,5.87-8.08,8.91c-3.29,3.83-6.87,7.51-9.55,11.75c-2.17,3.43-3.24,7.57-4.72,11.43c-1.05,2.75-2.14,5.51-2.93,8.34
	c-1.23,4.4-3.08,8.71-2.26,13.47c0.1,0.61,0,1.27-0.13,1.89c-0.73,3.65,0.33,7.06,0.95,10.62c0.68,3.88,2.75,6.92,4.32,10.24
	c0.98,2.08,3.02,3.65,4.59,5.45c0.26,0.3,0.74,0.52,0.8,0.84c0.66,3.48,4,4.38,6.07,6.5c0.73,0.75,0.88,2.07,1.61,2.84
	c4.29,4.54,8.64,9.01,13.04,13.44c0.74,0.75,1.78,1.27,2.76,1.72c3.83,1.76,6.13,5.83,5.95,10.12c-0.05,1.14,0.76,2.31,1.4,4.09
	c0.26-1.3,0.39-1.96,0.53-2.61c1.17,0.87,2.12,1.74,0.41,2.78c-1.93,1.17-2.78,2.58-2.2,5.02c0.21,0.88-1.12,2.12-1.8,3.29
	c-0.22-0.38-0.46-0.8-0.51-0.88c-1.55,0.21-3.38-0.1-4.13,0.66c-1.82,1.84-4.18,1.84-6.25,2.73c-0.68,0.29-0.89,1.66-1.38,2.65
	c-0.35-0.11-1.03-0.11-1.19-0.4c-1.57-2.98-4.05-2.78-6.88-2.43c-1.68,0.21-3.69-0.16-5.19-0.95c-2.7-1.41-5.12-3.35-7.67-5.05
	c-5.14-3.42-10.34-6.76-15.43-10.26c-4.41-3.04-7.19-7.45-9.43-12.18c-2.22-4.67-4.42-9.36-6.31-14.18
	c-1.34-3.41-2.13-7.03-3.23-10.77c-0.41,0.05-1.03,0.12-1.81,0.21c0.25-1.13,0.61-2.06,0.63-3.01c0.02-0.77-0.36-1.55-0.55-2.32
	c-0.34-1.35-0.69-2.7-1.01-4.05c-0.21-0.9-0.39-1.8-0.52-2.44c0.29-1.9,0.83-3.61,0.75-5.3c-0.26-5.45,0.99-10.61,2.7-15.68
	c0.25-0.75,1.04-1.32,1.48-1.87c0.24-1.13,0.29-2.38,0.76-3.45c3.06-6.97,6.07-13.96,9.41-20.79c1.21-2.48,3.43-4.45,4.97-6.79
	c1.55-2.35,2.68-4.98,4.26-7.31c1.17-1.74,2.81-3.15,4.16-4.78c2.05-2.47,4-5.04,6.07-7.5c1.1-1.31,2.25-2.62,3.58-3.67
	c3.39-2.69,5.89-6.02,8.14-9.7c3.38-5.52,6.71-11.12,12.26-14.95c2.17-1.5,3.92-3.6,5.95-5.34c0.83-0.71,1.81-1.28,2.81-1.73
	C449.02,567.26,449.03,567.28,451.14,561.88z"/>
<path d="M489.17,637.95c-1.46-0.74-2.78-1.33-4.03-2.05c-3.43-2-6.11-4.55-7.31-8.58c-0.97-3.24-2.6-6.27-3.78-9.46
	c-2.25-6.07-1.06-9.94,4.76-12.45c2.56-1.1,4.89-2.87,7.1-4.62c1.37-1.08,2.4-0.92,3.61-0.08c0.51,0.36,1.03,0.77,1.42,1.25
	c4.96,6.1,10.28,11.97,12.16,19.97c0.44,1.88,0.78,3.58-0.93,4.98c-0.06,0.05-0.14,0.12-0.15,0.18c-0.35,3.57-2.68,6.09-4.82,8.63
	c-0.79,0.94-2.24,1.53-3.49,1.83C492.14,637.95,490.46,637.86,489.17,637.95z"/>
<path d="M503.83,593.9c3.02-2.13,5.51-4.51,9.57-4.12c3.09,0.3,4.07,2.72,5.77,4.43c1.64,1.65,2.73,3.93,4.53,5.33
	c6.28,4.87,7.36,9.73,3.85,16.94c-0.35,0.73-0.61,1.62-0.56,2.41c0.26,4.38-1.66,6.39-5.97,5.91c-5.66-0.63-10.44-2.86-13.57-7.88
	c-0.29-0.46-0.56-0.99-0.63-1.52c-0.36-2.65-1.64-4.59-3.78-6.27c-3.62-2.84-3.73-5.04-0.65-8.93
	C503.84,598.38,505.39,596.69,503.83,593.9z"/>
<path d="M540.75,320.69c-0.08,1.67,0.07,3.26-0.3,4.73c-0.34,1.37-1.18,2.63-1.91,3.88c-0.41,0.71-1.03,1.29-1.69,2.1
	c-1.08-0.6-2.31-1.29-3.57-1.99c0.21,2.76-1.61,2.5-3.89,2.4c-4.63-0.21-9.27,0.04-13.91,0.05c-4.74,0.01-9.49,0.07-14.23-0.08
	c-2.5-0.08-5-0.76-7.49-0.74c-0.81,0.01-2.12,1.26-2.31,2.14c-0.52,2.42-0.54,4.95-0.81,7.43c-0.11,1.01-0.38,2-0.51,3.01
	c-0.16,1.22-0.38,2.46-0.34,3.68c0.22,6.13,0.52,12.25,0.78,18.38c0.13,2.98,0.16,5.96,0.39,8.93c0.04,0.56,0.8,1.06,1.31,1.7
	c-0.35,0.88-0.72,1.83-1.11,2.82c0.65,1.56,1.7,1.04,3.04,0.92c2.55-0.23,5.16,0.15,7.75,0.29c3.69,0.2,7.38,0.46,11.07,0.62
	c3.99,0.18,7.95,0.3,11.77,1.77c1.41,0.54,3.16,0.19,4.59,0.71c2.37,0.85,5.14,0.9,6.78,3.42c0.84,1.29,2.19,2.24,3.3,3.36
	c1.25,1.27,0.93,2.03-0.68,2.86c-0.82,0.43-1.31,1.51-1.94,2.3c0.18,0.17,0.36,0.34,0.54,0.5c0.6-0.13,1.2-0.27,1.74-0.39
	c0.18,0.6,0.24,1.61,0.56,1.7c0.61,0.18,1.36-0.18,2.39-0.37c-0.08-0.07,0.16,0.12,0.36,0.34c0.72,0.81,0.32,2.62-0.49,3.37
	c-0.58,0.54-0.85,1.4-1.31,2.19c-1.68,0-3.52,0.11-5.34-0.03c-1.66-0.13-1.88,0.92-1.92,2.07c-0.22,6.08-0.3,12.17-0.6,18.25
	c-0.22,4.52-0.81,9.02-1.02,13.55c-0.13,2.74,0.22,5.5,0.24,8.25c0.01,1.46-0.25,2.93-0.37,4.4c-0.23,2.97-0.36,5.95-0.69,8.91
	c-0.21,1.9-0.44,3.86-1.09,5.64c-0.8,2.21-2.03,4.27-2.91,6.06c-0.94-0.08-2.19-0.18-3.51-0.3c0.29,2.42-0.65,3.73-2.92,3.77
	c-1.51,0.03-2.52,0.3-3.75,1.36c-0.89,0.77-2.83,0.58-4.27,0.43c-3.68-0.37-7.32-1.24-11-1.39c-9.31-0.4-18.64-0.57-27.96-0.71
	c-2.49-0.04-5.01,0.64-7.49,0.49c-4.29-0.26-8.66,1.8-12.88-0.41c-0.26-0.14-0.63-0.14-0.94-0.1c-2.9,0.4-5.78,0.89-8.68,1.21
	c-3.92,0.43-7.86,0.74-11.79,1.06c-4.93,0.4-9.93,0.36-14.76,1.27c-3.13,0.59-6.01,2.53-9.01,3.87c-0.42,0.19-0.84,0.4-1.39,0.66
	c0.2,0.54,0.43,1.15,0.67,1.8c-0.36,0.14-0.67,0.35-0.77,0.27c-1.39-0.98-2.75-1.99-4.11-3.02c-0.82-0.62-1.52-1.48-2.43-1.86
	c-3.96-1.63-5.88-4.69-6.64-8.75c-0.75-4.01-1.71-7.98-2.43-12c-0.8-4.48-1.31-9.02-2.18-13.49c-0.96-4.92-2.43-9.75-3.22-14.69
	c-0.79-4.93-0.93-9.96-1.54-14.92c-0.27-2.18-1.22-4.27-1.44-6.45c-0.42-4.17-1.85-8.39,0.08-12.54c0.73-1.56,1.56-3.09,2.51-4.53
	c0.83-1.26,4.94-1.69,6.7-1.09c1.04,0.36,2.28,0.53,3.35,0.33c2.66-0.51,5.24-1.41,7.9-1.91c1.87-0.35,3.82-0.36,5.74-0.43
	c1.6-0.06,3.21,0.03,4.81,0.02c2-0.02,4.02,0.06,6-0.16c2.67-0.3,5.32-0.83,7.97-1.26c0.42-2.51,0.93-4.87,1.18-7.26
	c0.23-2.16,0.15-4.35,0.24-6.53c0.08-1.9-1.22-8.33-1.76-10.13c-0.74-2.49-1.34-5.04-1.73-7.61c-0.86-5.66-1.61-11.33-2.3-17.01
	c-0.32-2.6-0.84-2.98-3.35-2.5c-1.37,0.26-2.83,0.09-4.25,0.06c-1.41-0.02-2.82-0.1-4.23-0.16c-5-0.23-10-0.41-14.99-0.72
	c-1.08-0.07-2.15-0.52-3.2-0.86c-3.07-0.98-6.11-2.04-9.19-2.96c-1.65-0.49-2.57-1.24-2.53-3.15c0.08-3.59,1.67-5.88,4.71-7.91
	c4.41-2.96,9.41-3.46,14.21-4.95c3.5-1.09,6.95-0.48,10.35-1.24c1.14-0.25,2.47,0.51,3.7,0.44c1.87-0.1,3.71-0.7,5.58-0.78
	c5.68-0.22,11.36-0.37,17.04-0.41c6.36-0.05,12.72,0.14,19.08,0.06c2.52-0.03,5.02-0.57,7.54-0.79c4.6-0.4,9.2-0.78,13.81-1.08
	c7.15-0.46,14.3-1.03,21.46-1.21c5.57-0.14,11.21,0.79,16.7,0.18c4.1-0.46,7.95,0.15,11.85,0.64c3.77,0.47,7.44,1.67,9.93,4.9
	c0.49,0.64,0.87,1.58,0.84,2.37C538.06,321.13,537.99,321.13,540.75,320.69z M431.66,407.5c0.11,0,0.22,0,0.33,0
	c0-1.35-0.01-2.69,0-4.04c0.01-2.14-1.21-3.1-3.35-2.8c-2.49,0.35-4.98,0.71-7.49,0.81c-2.97,0.12-5.96-0.21-8.92-0.02
	c-2.3,0.15-4.6,0.69-6.85,1.28c-0.82,0.21-1.39,1.25-2.21,1.59c-3.39,1.41-4.37,2.85-3.6,6.32c1.17,5.24,2.59,10.42,3.79,15.65
	c1,4.33,1.85,8.7,2.76,13.06c0.46,2.21,0.63,4.53,1.46,6.59c1.16,2.86,2.08,5.68,2.29,8.79c0.11,1.58,1.15,2.18,2.88,1.83
	c5.28-1.07,10.56-2.3,15.91-2.84c2.6-0.26,3-1.41,2.99-3.35c-0.02-3-0.2-6-0.2-9c0-3.55,0.17-7.09,0.19-10.64
	C431.68,422.98,431.66,415.24,431.66,407.5z M508.28,451.91c1.36-7.61,2.3-14.9,4.03-22c1.96-8.01,4.59-15.87,7.03-23.76
	c1-3.23,0.51-5.37-1.79-5.72c-2.4-0.36-4.83-0.44-7.24-0.75c-1.7-0.21-3.42-0.46-5.06-0.93c-1.88-0.55-3.62-1.41-5.71-0.7
	c-1.15,0.39-2.55,0.61-3.69,0.32c-3.27-0.82-4.66,1.94-5.9,3.61c-1.39,1.87-2.29,4.89-1.9,7.15c0.92,5.29-1.28,10.4-0.05,15.7
	c0.85,3.66-0.37,7.54,0.14,11.44c0.53,4.06-0.16,8.31-0.63,12.44c-0.22,1.89,0.31,2.7,2.05,2.91c0.78,0.1,1.59,0.19,2.37,0.11
	c2.23-0.23,4.45-0.53,6.67-0.83c2.12-0.29,4.22,2.22,6.37,0.02c0.1-0.1,0.68,0.32,1.06,0.42
	C506.77,451.56,507.51,451.72,508.28,451.91z M475.01,331.92c-5,0-9.68-0.16-14.35,0.04c-5.01,0.22-10.01,0.86-15.02,1.13
	c-1.81,0.1-2.22,1.1-2.13,2.44c0.19,2.81,0.52,5.62,0.86,8.42c0.51,4.18,1.06,8.35,1.64,12.51c0.26,1.84,0.3,3.82,1.04,5.46
	c1.61,3.59,2.38,7.4,3.52,11.11c1.05,3.43,2.03,6.89,3.03,10.31c2.73-0.15,4.84-0.2,6.94-0.39c1.87-0.17,3.72-0.64,5.59-0.72
	c3.11-0.13,3.52-0.47,3.26-3.5c-0.03-0.39-0.05-0.79,0.02-1.18c0.5-2.92,1.03-5.84,1.54-8.75c0.82-4.71,1.7-9.42,2.44-14.14
	c0.63-4.05,1.27-8.11,1.58-12.19C475.22,339.01,475.01,335.52,475.01,331.92z M454.75,447.03c-0.12,0.06-0.25,0.12-0.37,0.18
	c0.26,1.01,0.42,2.07,0.83,3.02c0.25,0.58,0.83,1.34,1.35,1.42c1.83,0.27,3.71,0.29,5.56,0.4c2.3,0.13,2.67-0.38,2.55-2.65
	c-0.14-2.71-0.19-5.44-0.03-8.14c0.21-3.72,0.65-7.42,0.98-11.13c0.47-5.24,1.03-10.48,1.37-15.74c0.25-3.85,0.4-7.74,0.22-11.59
	c-0.13-2.94-2.04-4.11-4.78-3.52c-0.45,0.1-0.95-0.03-1.42-0.03c-1.96,0.01-3.93-0.01-5.89,0.06c-1.56,0.06-1.91,0.78-1.6,2.38
	c0.33,1.65,0.18,3.42,0.04,5.12c-0.24,3.01-1.04,6.03-0.86,9.01c0.38,6.07,1.33,12.1,1.88,18.17c0.25,2.77,0.12,5.57,0.14,8.36
	C454.77,443.92,454.75,445.48,454.75,447.03z"/>
<path d="M441.74,71.07c1.57-0.33,3.13-0.77,4.72-0.95c2.52-0.29,5.05-0.43,7.58-0.57c0.78-0.04,1.57,0.09,2.36,0.17
	c0.98,0.1,2.01,0.46,2.93,0.28c6.29-1.2,12.61-0.86,18.94-0.61c1.15,0.04,2.32-0.28,3.47-0.27c0.94,0.01,1.87,0.33,2.82,0.38
	c0.94,0.05,1.9-0.02,2.84-0.12c2.13-0.23,4.26-0.52,6.39-0.76c1.12-0.13,2.26-0.37,3.37-0.29c4.48,0.29,8.86,0.21,13.39-0.36
	c5.26-0.67,10.63-0.14,15.51,3.45c3.15,2.31,4.11,5.87,7.43,8.38c-1.12,0.42-1.87,0.7-2.9,1.09c4.12,2.44,4.04,4.59,0.74,7.07
	c-1.49,1.12-2.85,2.4-4.28,3.6c-0.47,0.4-0.94,1.01-1.48,1.1c-2.62,0.43-5.26,0.72-7.9,1.06c-1.59,0.21-3.19,0.66-4.77,0.61
	c-4.87-0.15-9.73-0.57-14.6-0.7c-1.68-0.05-3.37,0.65-5.06,0.66c-6.09,0.04-12.17-0.18-18.26-0.1c-4.48,0.05-8.95,0.41-13.42,0.63
	c-1.67,0.08-2.69,0.89-2.85,2.63c-0.02,0.18-0.1,0.36-0.1,0.53c0.09,5.92,0.17,11.83,0.3,17.75c0.05,2.48,0.22,4.96,0.36,8.01
	c1.12,0,2.75,0.23,4.29-0.04c10.03-1.76,20.01-2.89,30.29-1.75c5.07,0.56,8.39,2.49,10.84,6.6c0.26,0.44,0.34,0.99,0.42,1.25
	c-0.82,0.75-1.92,1.28-2.02,1.96c-0.1,0.68,0.8,1.51,1.28,2.27c0.44,0.71,1.39,1.56,1.23,2.08c-0.33,1.08-1.08,2.63-1.94,2.84
	c-3.21,0.79-3.65,2.98-3.72,5.69c-0.08,2.78-0.53,5.55-0.55,8.32c-0.05,6.23,0.19,12.46,0.05,18.68c-0.06,2.77-0.68,5.53-1.17,8.28
	c-0.28,1.59-1.33,3.1,0.3,4.68c0.27,0.26-0.45,1.81-0.97,2.6c-1.67,2.51-3.47,4.94-5.85,8.3c-1.6-0.12-4.48-0.33-7.36-0.53
	c-6.78-0.46-13.45-0.21-20.02,1.97c-1.86,0.62-4.11,0.07-6.18,0.06c-3.46-0.02-4.2,0.8-3.65,4.22c0.59,3.63,1.4,7.22,1.84,10.87
	c0.73,6.11,1.25,12.24,1.81,18.37c0.14,1.55-0.03,3.14,0.22,4.66c0.86,5.27-3.13,8.19-5.49,11.95c-1.01,1.61-1.42,3.64-1.92,5.53
	c-0.55,2.09-0.57,4.36-1.39,6.32c-0.7,1.66-2.2,2.98-3.31,4.41c-3.92-2.28-7.22-3.07-8.5-2.23c-0.73-0.51-1.45-1.01-2.64-1.84
	c-1.59-2.18-3.71-4.91-5.64-7.77c-1.08-1.59-2.11-3.3-2.7-5.11c-1.17-3.58-1.7-7.21-1.32-11.1c0.42-4.25-0.12-8.59-0.22-12.9
	c-0.01-0.53-0.15-1.26,0.14-1.57c3.49-3.8,0.42-7.89,0.58-11.83c0.01-0.35-0.19-0.7-0.24-1.05c-0.98-6.97-2.55-8.01-9.48-6.53
	c-1.1,0.24-2.33,0.06-3.47-0.08c-5.73-0.72-11.42-1.73-15.93-5.68c-0.89-0.78-1.46-2.77-1.13-3.9c0.69-2.33,0.65-4.39-0.4-6.5
	c-0.08-0.16-0.18-0.32-0.22-0.49c-1.34-4.94-2.61-9.9-4.02-14.81c-1.27-4.43-2.82-8.78-3.97-13.23c-0.69-2.69-1.42-5.59-1.1-8.27
	c0.36-3.05-1.41-6.02,0.08-9.04c1.21-2.47,1.93-5.21,3.29-7.59c1.31-2.31,3.58-3.31,6.36-3.38c5.74-0.14,11.48-0.55,17.22-0.76
	c5.67-0.21,11.34-0.27,17-0.46c2.24-0.07,4.47-0.28,6.23-0.4c-0.48-4.16-1.48-8.12-1.23-12c0.24-3.72,1.76-7.37,2.73-11.04
	c0.77-2.92,1.57-5.84,2.44-9.09c-2.81,0-5.33-0.01-7.84,0c-3.94,0.02-7.89-0.16-11.81,0.11c-5.4,0.38-10.78,1.02-16.15,1.71
	c-7.39,0.96-14.75,2.13-22.14,3.1c-4.43,0.58-7.08,3.37-7.27,7.91c-0.11,2.57-0.17,5.15-0.49,7.7c-0.08,0.61-1.06,1.11-1.24,1.29
	c0.09,3.66,0.28,7.06,0.15,10.45c-0.03,0.68-1.27,1.31-2.05,2.06c1.45,3.04,1.22,4.18-1.73,7.44c-0.15,0.17-0.31,0.39-0.35,0.6
	c-0.44,2.32-0.67,4.69-1.32,6.94c-1,3.45-2.37,6.8-3.43,10.24c-0.45,1.44-0.47,3-0.76,4.5c-0.2,1.05-0.48,2.1-0.8,3.12
	c-0.46,1.45-1,2.88-1.5,4.32c-1.34,3.91-2.54,7.86-4.03,11.71c-1.8,4.66-3.79,9.25-5.78,13.83c-0.29,0.66-1.01,1.13-1.54,1.68
	c0.25,0.07,0.5,0.14,0.75,0.2c-0.42,1.52-0.93,3.03-1.23,4.57c-0.18,0.94-0.03,1.94-0.03,3.41c-0.97-0.72-1.58-1.18-2.31-1.72
	c0.52,2.53,1,4.87,1.52,7.42c-2.79,0.28-3.86,1.99-4.32,4.58c-0.14,0.79-1.64,1.42-2.6,1.96c-1.24,0.69-3.03,0.92-3.71,1.93
	c-0.49,0.72,0.47,2.41,0.77,3.67c0.77,3.29-2.38,7.96-5.75,9.24c-3.02,1.15-5.9,2.73-8.69,4.36c-0.82,0.48-1.15,1.79-1.68,2.68
	c-1.57,0.73-3.25,1.51-4.91,2.28c-1.24-0.9-2.77-1.99-3.96-2.85c0.1-4.68,0.15-9.56,0.33-14.44c0.24-6.44,0.72-12.8,2.94-19
	c1.52-4.25,1.99-8.87,3.18-13.25c0.81-3.01,2.06-5.9,3.09-8.86c0.44-1.26,0.8-2.55,1.25-3.81c0.53-1.49,1.18-2.95,1.68-4.45
	c0.66-1.97,1.17-4,1.85-5.97c0.48-1.4,1.33-2.69,1.68-4.11c0.86-3.43,1.51-6.92,2.29-10.37c1.23-5.47,2.41-10.92,4.88-16.07
	c2.21-4.6,4-9.44,5.6-14.3c1.86-5.66,3.37-11.43,4.93-17.19c1.49-5.52,3.47-11.02,4.08-16.65c0.56-5.15,4.35-7.19,7.29-10.14
	c1.56-1.56,5.11-1,7.16,0.09c3.05,1.62,6.31,2.33,9.82,1.09c7.27-2.56,14.83-3.29,22.5-3.45c6.69-0.15,13.36-0.72,19.98-1.91
	c4.35-0.78,8.8-1.02,13.2-1.44c0.47-0.04,0.96,0.41,1.47,0.52c0.78,0.17,1.68,0.53,2.35,0.29C439.01,70.5,439.21,70.44,441.74,71.07
	z M483.14,141.18c-0.78-0.19-1.13-0.38-1.46-0.35c-3.97,0.39-7.93,0.87-11.9,1.21c-5.34,0.46-10.69,0.82-16.04,1.23
	c-5.27,0.4-10.54,0.99-15.82,1.19c-8.29,0.32-16.59,0.4-24.89,0.55c-2.78,0.05-3.51,0.87-2.84,3.57c0.45,1.82,1.1,3.6,1.59,5.41
	c1.16,4.25,1.9,4.83,6.23,4.43c6.24-0.57,12.47-1.36,18.72-1.77c5.51-0.36,11.04-0.31,16.55-0.5c8.07-0.29,16.14-0.59,24.2-1.03
	c0.89-0.05,2.27-0.91,2.5-1.68C481.17,149.49,482.07,145.46,483.14,141.18z M476.43,169.41c-3.57,0.61-6.94,1.46-10.35,1.7
	c-8.19,0.56-16.4,0.74-24.6,1.26c-6.73,0.43-13.46,0.99-20.14,1.8c-2.13,0.26-4.23,1.38-6.18,2.41c-2.13,1.11-1.62,3.3-1.28,5.1
	c0.12,0.64,1.39,1.5,2.15,1.51c3.4,0.05,6.82-0.08,10.22-0.3c6.26-0.41,12.5-1.03,18.76-1.38c5-0.28,10.03-0.21,15.04-0.42
	c4.3-0.18,8.6-0.47,12.89-0.86c0.68-0.06,1.73-0.81,1.86-1.41C475.47,175.77,475.89,172.66,476.43,169.41z"/>
<path d="M350.14,408.82c0.26,0.57,0.86,1.22,0.73,1.68c-1.26,4.52-0.77,9.08-0.6,13.65c0.02,0.43-0.5,0.87-0.79,1.36
	c0.05,1.19,0.18,2.73,0.16,4.26c-0.02,2.1-0.06,4.2-0.25,6.29c-0.36,3.99-0.86,7.97-1.24,11.96c-0.07,0.73,0.2,1.5,0.15,2.24
	c-0.13,1.8,0.4,3.64-0.85,5.38c-0.41,0.58,0.15,1.94,0.41,2.9c0.29,1.09,0.75,2.13,1.14,3.22c-0.99,0.23-1.61,0.37-1.83,0.42
	c0.31,1.42,0.84,2.62,0.76,3.79c-0.23,3.39-0.71,6.77-1.14,10.54c-3.25-1.98-4.32-0.49-5.47,2.48c-0.41,1.07-1.49,2.14-1.47,3.7
	c-3.12-0.45-0.6-3.26-1.94-4.53c-0.95,2.39-0.57,5.36-3.6,6.77c-0.2-0.83-0.18-1.71-0.61-2.2c-0.44-0.5-1.32-0.61-1.74-0.78
	c-0.37-2.89-1.85-5.16-3.77-6.94c-1.63-1.51-2.25-3.1-2.31-5.19c-0.05-1.99-0.38-3.97-0.5-5.96c-0.05-0.85,0.15-1.71,0.17-2.56
	c0.05-1.59,0.08-3.18,0.06-4.77c-0.03-2.63-0.23-5.27-0.13-7.9c0.12-3.22,0.61-6.43,0.71-9.65c0.16-4.82,0.2-9.64,0.14-14.46
	c-0.02-2.04-0.42-4.07-0.62-6.11c-0.51-5.34-0.69-10.65,0.05-16.03c0.26-1.89-1.05-4.01-1.69-6.01c-0.14-0.44-0.72-0.95-0.61-1.21
	c1.44-3.27-1.72-6.93,0.89-10.06c-0.82-4.44,2.09-8.36,1.67-12.82c-0.25-2.63,0.66-5.34,0.65-8.02c-0.01-3.84-0.37-7.67-0.63-11.51
	c-0.03-0.41-0.42-0.79-0.73-1.32c-0.28,0.99-0.5,1.75-0.72,2.52c-0.56-0.35-1.11-0.71-1.79-1.14c-0.38,0.67-0.79,1.39-1.18,2.12
	c-0.33,0.6-0.72,1.77-0.92,1.74c-1.14-0.2-2.32-0.54-3.32-1.12c-0.59-0.34-0.88-1.19-1.54-2.15c-0.24,1.08-0.38,1.73-0.47,2.14
	c-1.23,0.49-2.28,0.91-3,1.19c-3.82-1.84-4.12,3.05-6.84,3.05c-0.09-0.13-0.33-0.49-0.44-0.65c-0.35,0.76-0.75,1.61-1.15,2.46
	c-0.21-0.06-0.42-0.11-0.63-0.17c-0.2-0.54-0.41-1.08-0.46-1.23c-1.51,1.12-3.04,2.26-4.57,3.39c-0.11-0.18-0.22-0.36-0.33-0.54
	c0.43-0.88,0.85-1.77,1.28-2.65c-0.48,0.04-0.96,0.09-1.94,0.18c1.04-1.55,1.81-3.17,2.99-4.39c3.39-3.5,4.36-8.1,6.12-12.37
	c0.81-1.97,2.28-3.7,3.6-5.42c2.42-3.17,4.87-6.32,7.46-9.35c1.97-2.31,4.24-4.36,6.21-6.67c1.21-1.41,2.02-3.15,3.17-4.61
	c3.31-4.19,6.75-8.29,10.07-12.48c2.75-3.46,5.21-7.17,8.16-10.45c3.8-4.21,8.39-7.33,14.23-8.12c1.84-0.25,3.71,0.93,4.1,2.74
	c0.48,2.25,0.46,4.22-1.08,6.41c-1.62,2.31-2.2,5.35-3.32,8.03c-1.32,3.16-2.76,6.27-4.12,9.41c-0.24,0.56-0.64,1.23-0.52,1.75
	c0.5,2.12-1.02,3.41-2.05,4.66c-3.24,3.9-5.05,8.51-4.87,13.31c0.31,8.03,1.66,16.01,2.35,24.04c0.25,2.98-0.17,6-0.2,9.01
	c-0.02,1.45,0.21,2.91,0.23,4.36c0.01,1.16-0.04,2.34-0.22,3.48c-0.3,1.94-0.35,3.66,0.63,5.62c1.05,2.1,1.47,4.63,1.67,7.02
	c0.29,3.59,0.37,7.23,0.12,10.83c-0.17,2.6-1.02,5.15-1.55,7.73c-0.04,0.21,0.06,0.45,0.06,0.68c0.01,1.02,0,2.04,0,3.06
	C350.42,408.84,350.28,408.83,350.14,408.82z"/>
<path d="M520.76,249.69c-3.01,0.43-5.58,1.13-8.13,1.08c-3.53-0.07-7.24-0.16-10.55-1.23c-6.38-2.06-12.75-4.39-18.73-7.4
	c-6.45-3.25-12.7-7.07-16.76-13.47c-0.72-1.13-1.67-2.12-2.51-3.17c-0.11-0.14-0.35-0.25-0.37-0.39c-0.26-2.38-0.75-4.77-0.66-7.14
	c0.09-2.37,2.03-3.79,3.45-5.58c3.06-3.85,6.52-1.69,9.76-1.37c2.02,0.2,3.9,1.66,5.9,2.39c5.18,1.89,10.43,3.6,15.58,5.57
	c3.84,1.47,7.63,3.1,11.35,4.88c3.79,1.81,7.51,3.79,11.17,5.85c4.95,2.79,6.81,7.43,7.01,12.82
	C527.35,245.02,522.59,249.72,520.76,249.69z"/>
<path d="M365.21,258.42c0.01-0.14-0.03,0.34-0.07,0.94c-2.4-1.25-4.71-2.32-6.88-3.61c-1.71-1.02-3.19-7.56-2.24-9.52
	c1.35-2.79,2.77-5.21,5.85-6.91c5.14-2.85,9.69-6.73,14.6-10.01c3.86-2.57,7.92-4.83,11.83-7.33c3.71-2.37,7.24-5.03,11.03-7.28
	c2.5-1.48,5.29-2.49,7.98-3.62c1.85-0.78,3.72-1.76,5.67-2.02c3.15-0.42,4.65,1.6,3.99,4.67c-0.2,0.92-0.12,1.89-0.65,2.53
	c-1.31,2.28-2.58,4.59-3.95,6.83c-0.77,1.27-1.68,2.45-2.57,3.64c-0.48,0.64-1.14,1.17-1.52,1.86c-2.11,3.87-5.16,6.85-8.66,9.45
	c-1.33,0.99-2.71,2.04-3.66,3.36c-1.29,1.79-3.09,2.19-4.98,2.65c-0.33,0.08-0.66,0.31-0.91,0.56c-2.02,1.95-3.89,4.09-6.06,5.85
	c-2.9,2.35-6.01,4.46-9.09,6.58c-0.59,0.41-1.78,0.78-2.17,0.49c-1.63-1.23-2.63-0.47-4,0.49
	C367.94,258.58,366.54,258.3,365.21,258.42z"/>
<path class="st0" d="M431.66,407.5c0,7.74,0.02,15.49-0.01,23.23c-0.01,3.55-0.19,7.09-0.19,10.64c0,3,0.18,6,0.2,9
	c0.01,1.95-0.38,3.09-2.99,3.35c-5.34,0.54-10.63,1.77-15.91,2.84c-1.73,0.35-2.77-0.25-2.88-1.83c-0.21-3.1-1.13-5.93-2.29-8.79
	c-0.84-2.05-1-4.38-1.46-6.59c-0.91-4.35-1.76-8.72-2.76-13.06c-1.21-5.23-2.63-10.41-3.79-15.65c-0.77-3.47,0.21-4.91,3.6-6.32
	c0.82-0.34,1.39-1.37,2.21-1.59c2.24-0.59,4.54-1.13,6.85-1.28c2.96-0.19,5.95,0.14,8.92,0.02c2.5-0.1,5-0.46,7.49-0.81
	c2.14-0.3,3.36,0.67,3.35,2.8c-0.01,1.35,0,2.69,0,4.04C431.88,407.5,431.77,407.5,431.66,407.5z"/>
<path class="st0" d="M508.28,451.91c-0.77-0.19-1.51-0.35-2.25-0.57c-0.38-0.11-0.96-0.53-1.06-0.42c-2.15,2.2-4.26-0.32-6.37-0.02
	c-2.22,0.31-4.44,0.6-6.67,0.83c-0.78,0.08-1.59-0.01-2.37-0.11c-1.73-0.21-2.26-1.01-2.05-2.91c0.47-4.13,1.16-8.39,0.63-12.44
	c-0.51-3.9,0.71-7.78-0.14-11.44c-1.23-5.3,0.97-10.42,0.05-15.7c-0.39-2.26,0.51-5.28,1.9-7.15c1.24-1.67,2.63-4.43,5.9-3.61
	c1.14,0.29,2.54,0.07,3.69-0.32c2.09-0.71,3.83,0.15,5.71,0.7c1.64,0.48,3.36,0.72,5.06,0.93c2.41,0.3,4.85,0.38,7.24,0.75
	c2.3,0.35,2.79,2.49,1.79,5.72c-2.45,7.89-5.07,15.74-7.03,23.76C510.58,437.01,509.64,444.3,508.28,451.91z"/>
<path class="st0" d="M475.01,331.92c0,3.6,0.21,7.09-0.05,10.55c-0.31,4.08-0.95,8.14-1.58,12.19c-0.74,4.73-1.61,9.43-2.44,14.14
	c-0.51,2.92-1.04,5.83-1.54,8.75c-0.07,0.38-0.05,0.79-0.02,1.18c0.26,3.03-0.15,3.37-3.26,3.5c-1.87,0.08-3.72,0.55-5.59,0.72
	c-2.1,0.19-4.21,0.25-6.94,0.39c-1-3.42-1.98-6.87-3.03-10.31c-1.13-3.71-1.9-7.52-3.52-11.11c-0.74-1.64-0.78-3.62-1.04-5.46
	c-0.58-4.17-1.13-8.34-1.64-12.51c-0.34-2.8-0.68-5.61-0.86-8.42c-0.09-1.35,0.32-2.34,2.13-2.44c5.01-0.27,10.01-0.91,15.02-1.13
	C465.32,331.76,470.01,331.92,475.01,331.92z"/>
<path class="st0" d="M454.75,447.03c0-1.56,0.01-3.12,0-4.67c-0.03-2.79,0.11-5.59-0.14-8.36c-0.55-6.06-1.51-12.1-1.88-18.17
	c-0.18-2.97,0.62-6,0.86-9.01c0.13-1.7,0.28-3.47-0.04-5.12c-0.32-1.6,0.04-2.32,1.6-2.38c1.96-0.07,3.93-0.05,5.89-0.06
	c0.47,0,0.97,0.12,1.42,0.03c2.73-0.6,4.65,0.58,4.78,3.52c0.17,3.85,0.02,7.74-0.22,11.59c-0.34,5.25-0.9,10.49-1.37,15.74
	c-0.33,3.71-0.77,7.42-0.98,11.13c-0.15,2.71-0.11,5.44,0.03,8.14c0.12,2.27-0.25,2.78-2.55,2.65c-1.86-0.1-3.73-0.12-5.56-0.4
	c-0.52-0.08-1.1-0.84-1.35-1.42c-0.41-0.95-0.57-2.01-0.83-3.02C454.51,447.15,454.63,447.09,454.75,447.03z"/>
<path class="st0" d="M483.14,141.18c-1.07,4.28-1.96,8.31-3.16,12.26c-0.23,0.76-1.61,1.63-2.5,1.68
	c-8.06,0.44-16.13,0.74-24.2,1.03c-5.52,0.2-11.05,0.14-16.55,0.5c-6.25,0.41-12.48,1.19-18.72,1.77c-4.33,0.4-5.07-0.18-6.23-4.43
	c-0.49-1.81-1.14-3.59-1.59-5.41c-0.67-2.7,0.06-3.52,2.84-3.57c8.3-0.15,16.6-0.23,24.89-0.55c5.28-0.2,10.55-0.78,15.82-1.19
	c5.35-0.41,10.7-0.77,16.04-1.23c3.97-0.34,7.93-0.82,11.9-1.21C482.01,140.8,482.36,140.99,483.14,141.18z"/>
<path class="st0" d="M476.43,169.41c-0.54,3.25-0.96,6.35-1.63,9.41c-0.13,0.6-1.18,1.35-1.86,1.41c-4.29,0.39-8.59,0.68-12.89,0.86
	c-5.01,0.21-10.03,0.14-15.04,0.42c-6.26,0.35-12.51,0.97-18.76,1.38c-3.4,0.22-6.81,0.35-10.22,0.3c-0.76-0.01-2.03-0.87-2.15-1.51
	c-0.34-1.8-0.85-3.98,1.28-5.1c1.96-1.02,4.05-2.15,6.18-2.41c6.69-0.82,13.42-1.38,20.14-1.8c8.19-0.52,16.41-0.69,24.6-1.26
	C469.49,170.88,472.86,170.02,476.43,169.41z"/>
<path d="M236.38,271.15c-0.92,2.45-1.87,4.88-2.75,7.35c-0.11,0.32,0.22,0.77,0.25,1.17c0.13,1.83,1.73,3.56-0.75,5.47
	c-1.33,1.03-1.31,3.8-1.98,6.06c-1.59,0.52-2.03,2.37-2.41,4.17c-0.54,2.58-0.93,5.2-1.42,7.79c-0.26,1.39-0.61,2.76-0.91,4.14
	c-0.07,0.31,0.02,0.71-0.16,0.92c-2.09,2.5-2.23,5.85-3.7,8.57c-1.82,3.37-4.13,6.41-7.93,7.96c-1.03,0.42-1.83,1.45-2.71,2.23
	c-1.16,1.04-2.24,2.18-3.47,3.14c-1.41,1.1-2.92,2.06-4.41,3.05c-1.17,0.78-2.37,1.53-3.57,2.26c-0.26,0.16-0.8,0.13-0.87,0.31
	c-0.87,2.39-3.06,1.39-4.66,1.91c-1.6,0.52-3.08,1.38-4.67,1.9c-1.28,0.42-2.76,0.98-3.97,0.71c-3.21-0.72-5.9,0.72-9.52,1.25
	c1.29,0.84,1.93,1.27,2.84,1.86c-3.61,2.19-6.06-2.81-8.48-1.13c-1.26-0.78-1.99-1.23-2.71-1.68c-0.13,0.72-0.25,1.43-0.46,2.6
	c-1.06-0.69-2.31-1.49-3.56-2.3c0.12-0.2,0.23-0.4,0.35-0.6c-6.25-0.67-12.71-0.32-18.49-3.38c-0.97-0.29-1.93-0.57-3.19-0.94
	c0.63-0.41,0.93-0.61,1.31-0.85c-0.47-0.63-0.91-1.24-1.49-2.02c-0.19,0.76-0.34,1.31-0.67,2.6c-0.73-1.54-1.17-2.46-1.61-3.39
	c-0.09,0.11-0.17,0.23-0.26,0.34c-0.96-0.67-2.24-1.14-2.8-2.05c-0.92-1.48-3.29-1.84-2.99-4.46c0.11-0.96-1.82-2.21-2.89-3.25
	c-1.95-1.9-3.56-3.96-3.71-6.83c-0.01-0.23-0.02-0.55-0.16-0.66c-2.69-2.05-2.19-5.48-3.5-8c-2.46-4.74-2.21-9.88-3.31-14.8
	c-0.95-4.22-1.18-8.6-1.92-12.88c-0.38-2.2-1.25-4.31-1.7-6.5c-0.2-0.96,0.29-2.05,0.11-3.02c-0.46-2.49-1.25-4.92-1.66-7.41
	c-0.51-3.11-0.76-6.27-1.14-9.4c-0.17-1.41-0.65-2.83-0.53-4.21c0.33-3.65,0.95-7.27,1.38-10.91c0.2-1.74,0.12-3.52,0.36-5.26
	c0.57-4.12,1.26-8.22,1.88-12.33c0.32-2.16,0.42-4.37,0.92-6.49c0.7-2.95,1.53-5.9,2.57-8.75c0.98-2.7,2.02-5.46,3.54-7.87
	c2.51-3.98,4.77-8.34,9.7-10.04c2.59-0.89,7.36-0.77,9.59,2.07c1.67,2.12,2.07,4.25,2.63,6.76c0.51,2.26,0.66,3.9-0.37,5.84
	c-0.16,0.3,0.05,1.11,0.34,1.3c1.88,1.22,1.32,2.56,0.39,4.02c-0.19,0.3-0.15,0.77-0.17,1.16c-0.22,4.23-0.68,8.47-0.58,12.7
	c0.08,3.59,0.77,7.16,1.24,10.73c0.61,4.69,1.4,9.36,1.86,14.06c0.85,8.7,1.31,17.44,2.32,26.11c0.81,7.01,1.84,14.04,3.46,20.9
	c0.88,3.74,2.19,7.4,4.94,10.72c3.47,4.2,7.06,8.02,11.84,10.44c3.79,1.92,7.88,2.15,12.13,0.78c5.5-1.77,10.04-4.91,14.11-8.84
	c4.01-3.87,8.04-7.74,11.78-11.86c2.12-2.34,3.42-5.41,5.53-7.76c2.65-2.96,5.67-5.6,8.68-8.21c2.4-2.08,4.96-3.98,7.57-5.79
	c1.24-0.86,2.76-1.31,4.15-1.94C236.1,270.84,236.24,270.99,236.38,271.15z"/>
<path d="M208.82,675.73c-0.27-0.18-0.79-0.52-1.33-0.87c-0.17,0.3-0.34,0.51-0.31,0.55c1.18,1.4,1.47,2.62,0.54,4.53
	c-0.81,1.67-0.62,3.86-0.76,5.82c-0.1,1.58-0.41,2.75-2.29,2.16c0,2,0.05,3.91-0.03,5.82c-0.02,0.61-0.19,1.53-0.59,1.76
	c-3.35,1.86-1.77,5.2-2.22,7.79c-0.74,4.31-1.61,8.48-3.75,12.33c-0.26,0.47,0.09,1.28,0.19,2.18c-0.65-0.16-1.12-0.28-1.61-0.4
	c-0.02,0.08-0.14,0.26-0.09,0.36c0.49,1.09,1.01,1.6-0.09,3.22c-1.99,2.92-2.63,6.74-3.94,10.14c-0.38,0.99,0.21,2.49-1.69,2.87
	c-0.53,0.1-0.68,1.95-1.06,2.98c-1.04,2.86-2.01,5.75-3.23,8.54c-0.28,0.63-1.44,0.88-1.78,1.49c-0.95,1.44-1.92,2.88-2.85,4.34
	c-0.28,0.45-0.47,0.97-0.66,1.47c-1.27,3.34-2.53,6.69-4.86,9.46c-1.86,2.2-3.79,4.35-5.81,6.41c-0.44,0.45-1.36,0.42-2.06,0.61
	c-0.14-0.2-0.29-0.41-0.43-0.61c-0.6,1.05-1.44,2.04-1.75,3.17c-0.46,1.66-1.28,1.78-2.61,1.15c-1.03-0.49-2.07-0.94-3.35-1.07
	c0.35,0.53,0.71,1.06,1.08,1.63c-1.17,1.61-2.34,3.23-3.67,5.06c-1.27-1.9-2.24-1.76-3.62-0.61c-2.26,1.88-4.72,3.54-7.19,5.14
	c-0.43,0.28-1.32-0.13-1.34-0.13c-1.89,1.1-3.35,1.96-4.81,2.82c0.11,0.05,0.22,0.11,0.33,0.16c-1.22,1.42-2.44,2.84-3.54,4.12
	c-0.53-1.06-0.88-1.77-1.49-2.99c0.46-0.21,1.24-0.57,1.98-0.91c-0.94-1.59-1.29-1.61-3.53,0.15c0.28-1.25,0.55-2.51,0.85-3.89
	c-2.81-1.26-0.5-3.23,0.1-4.87c0.98-2.66,2.31-5.19,3.45-7.8c0.8-1.83,1.94-3.63,2.24-5.55c0.67-4.39,3.11-8.07,4.39-12.2
	c0.46-1.47,1.25-2.84,1.79-4.3c0.77-2.1,0.93-4.7,2.31-6.22c1.28-1.41,1.5-2.84,2.11-4.36c1.46-3.62,2.61-7.66,5.09-10.47
	c1.99-2.25,0.95-5.1,2.83-6.95c1.81-1.78,2.02-4.09,2.41-6.41c0.1-0.6,1.04-1.03,1.52-1.61c1.74-2.1,1.77-4.8,2.53-7.25
	c0.48-1.55,1.02-3.09,1.64-4.59c2.08-5.04,4.21-10.06,6.32-15.09c0.15-0.36,0.43-0.75,0.38-1.09c-0.6-4.18,1.88-7.61,2.72-11.43
	c0.56-2.55,0.56-5.21,0.99-7.8c0.46-2.8,1.11-5.57,1.72-8.34c1.3-5.87,2.61-11.74,3.94-17.6c0.7-3.11,1.61-6.18,2.13-9.32
	c0.48-2.92,0.58-5.91,0.82-8.87c0.23-2.83,0.26-5.68,0.66-8.48c0.6-4.2,1.69-8.34,2.11-12.55c0.59-5.86,0.58-11.78,1.17-17.63
	c0.29-2.85,1.34-5.63,2.12-8.43c0.09-0.33,0.68-0.75,1.03-0.75c3.75,0.03,5.47-2.99,7.76-5.14c0.27-0.25,0.2-0.86,0.42-1.99
	c1.07,1.22,1.88,1.98,2.5,2.89c1.22,1.8,2.3,3.7,3.5,5.51c2.03,3.05,3.98,6.09,4.53,9.84c0.14,0.95,0.76,2,1.47,2.66
	c3.14,2.9,3.63,6.91,3.89,10.64c0.41,5.72-0.06,11.51-0.14,17.27c-0.06,4.57-0.07,9.15-0.19,13.72c-0.03,1.36-0.34,2.72-0.55,4.07
	c-1.05,6.81-2.02,13.64-3.21,20.43c-0.78,4.43-1.87,8.8-2.85,13.19C210.4,668.98,209.61,672.29,208.82,675.73z"/>
<path d="M189.08,358.28c2.05,0.56,2.27,3.55,4.53,2.61c0.82-0.34,1.36-1.34,2.15-2.18c0.23,0.17,0.69,0.49,1.61,1.15
	c-0.28-1.39-0.46-2.26-0.64-3.16c1.81-0.66,3.46-0.66,4.69,1.36c0.24,0.4,1.17,0.4,2.32,0.74c-0.58-1.04-0.85-1.53-1.25-2.23
	c0.69,0,1.46-0.09,1.49,0.01c0.69,2.51,3.22,3.18,4.9,4.47c1.93,1.48,2.52,3.15,2.68,5.19c0.31,3.91,0.33,7.85,0.7,11.76
	c0.29,3.05,0.84,6.09,1.49,9.09c0.12,0.55,1.19,1.21,1.87,1.28c2.3,0.22,4.62,0.14,6.93,0.29c3.46,0.22,7,0.18,10.36,0.91
	c3.41,0.73,7.16,1.48,9.31,4.64c1,1.47,1.83,3.68,1.47,5.27c-0.31,1.38,1.32,3.26-0.8,4.22c0.29,0.23,0.58,0.46,0.48,0.37
	c-1.08,1.92-2.29,3.59-3,5.45c-1.22,3.17-5.17,6-8.53,6.06c-4.14,0.08-8.28,0.35-12.41,0.64c-2.38,0.17-2.28,2.15-2.26,3.75
	c0.08,6.28,0.05,12.5-0.9,18.79c-0.8,5.24-2.53,10.39-1.44,16.02c0.75,3.91,0.34,8.29-0.58,12.23c-1.15,4.92-0.37,9.83-0.99,14.69
	c-0.12,0.93-0.41,1.84-0.67,2.74c-1.13,3.98-2.31,7.96-3.42,11.95c-0.82,2.93-1.43,5.92-2.36,8.82c-0.9,2.82-2.03,5.57-3.17,8.31
	c-0.19,0.45-0.93,0.67-1.35,0.95c0.09,0.57,0.45,1.28,0.24,1.69c-1.12,2.13-2.43,4.16-3.59,6.27c-0.62,1.13-0.98,2.41-1.63,3.52
	c-0.32,0.55-1.04,0.86-1.83,1.46c0.22,0.61,0.52,1.46,0.84,2.35c-0.04,0.07-0.13,0.31-0.21,0.31c-4.39,0.04-4.85,4.08-6.53,6.69
	c-1.45,2.25-2.18,4.96-3.3,7.44c-0.18,0.4-0.71,0.64-1.08,0.95c-0.21-0.51-0.61-1.03-0.57-1.52c0.08-0.82,0.44-1.62,0.43-2.51
	c-0.36,0.69-0.89,1.34-1.05,2.07c-0.17,0.75-0.28,1.78,0.1,2.34c1,1.44,0.27,1.91-0.96,2.04c-1.49,0.15-3.08,0.36-4.47-0.01
	c-0.63-0.17-0.99-1.68-1.29-2.63c-0.18-0.57,0.26-1.54-0.05-1.83c-1.99-1.91-0.99-4.06-0.76-6.2c0.52-4.75,0.86-9.53,1.41-14.28
	c0.39-3.36,1-6.7,1.53-10.05c0.67-4.22,1.33-8.44,2.06-12.64c1.38-7.94,2.68-15.9,4.25-23.81c0.8-4.06,2.36-7.97,3.11-12.03
	c0.99-5.33,1.84-10.72,2.19-16.12c0.41-6.37,0.22-12.77,0.3-19.16c0.04-3.16,0.01-6.32,0.15-9.48c0.09-1.89-0.8-2.46-2.51-2.67
	c-4.76-0.59-9.54-1.13-14.24-2.07c-2.97-0.59-5.85-1.74-8.68-2.85c-2.95-1.16-3.65-3.24-4.17-6.25c-0.62-3.6,1.49-6.13,2.49-9.1
	c0.2-0.59,0.83-1.1,1.37-1.5c6.58-4.79,14.37-4.48,21.92-4.97c1.96-0.13,2.77-0.4,2.57-2.47c-0.48-4.79-0.7-9.6-1.31-14.37
	c-0.26-2.07-1.64-4.03-1.74-6.08c-0.12-2.51-0.25-5.26,1.78-7.37C189.24,359.42,189.08,358.92,189.08,358.28z"/>
<path d="M113.67,104.51c0.18-0.12,0.74-0.85,1.22-0.8c3.74,0.34,7.59-1.47,11.26,0.67c1.76,1.03,2.97,0.04,3.83-1.7
	c-2.83-1.67-5.67-3.19-8.34-4.96c-5.72-3.77-11.21-7.81-14.36-14.21c-1.2-2.44-2.61-2.46-4.29-0.37c-1.02,1.26-2.19,2.44-3.46,3.46
	c-3.17,2.55-6.32,5.15-9.7,7.39c-1.37,0.91-3.29,1.03-4.99,1.37c-1.54,0.31-3.13,0.44-4.69,0.65c-0.08,0.01-0.22-0.01-0.24,0.03
	c-1.36,2.61-3.82,2.4-6.26,2.87c-3.06,0.59-5.92,2.14-8.9,3.18c-0.66,0.23-1.47,0.03-1.52,0.03c-0.39-1.76-0.67-3.03-0.95-4.3
	c-0.08-0.37-0.18-0.75-0.17-1.13c0.16-3.21-0.81-6.65,2.23-9.21c2.59-2.19,4.96-4.64,7.59-6.78c4.83-3.93,9.72-7.77,14.67-11.55
	c5.12-3.9,10.3-7.74,15.54-11.46c1.17-0.83,2.73-1.12,4.13-1.61c2.36-0.84,4.68-1.86,7.1-2.43c3.59-0.85,4.98,0.27,5.69,3.78
	c1.07,5.29,4.12,9.57,8.09,12.86c3.96,3.28,8.63,5.72,13.01,8.49c4.76,3.01,9.57,5.94,14.3,9.01c1.32,0.86,2.39,2.09,3.93,2.73
	c0.66,1.14,1.32,2.27,1.98,3.41c-0.09,0.21-0.18,0.42-0.27,0.64c-1.39-0.7-2.77-1.41-4.15-2.11c-1.22,2.5,1.56,2.31,2.78,3.58
	c-2.78,1.95-1.85,4.42-1.16,7.27c-0.64-0.41-1.29-0.81-2.05-1.29c-0.27,0.22-0.68,0.4-0.88,0.72c-2.55,4.06-6.47,4.78-10.75,4.22
	c-3.68-0.48-5.48,0.98-4.52,4.57c0.6,2.26-0.49,3.81-1.06,5.66c-0.86,2.82-1.92,5.67-2.18,8.58c-0.56,6.22-0.6,12.49-0.98,18.73
	c-0.11,1.89-0.6,3.76-0.98,5.62c-0.09,0.45-0.36,0.98-0.71,1.23c-1.81,1.28-3.68,2.47-5.45,3.65c0,1.17,0.22,2.45-0.07,3.6
	c-0.22,0.87-1.06,1.59-1.69,2.33c-0.26,0.3-0.88,0.4-0.99,0.72c-1.31,3.66-4.38,2.88-7.14,2.94c-0.73,0.02-1.47,0.13-2.18,0.3
	c-1.73,0.41-3.42,1.07-5.17,1.27c-7.24,0.83-14.52,0.84-21.69-0.36c-4.3-0.71-8.46-2.3-12.62-3.7c-0.83-0.28-1.57-1.39-1.97-2.28
	c-0.82-1.82-1.08-3.93-2.1-5.61c-2.15-3.53-4.04-7-3.72-11.35c0.12-1.7-0.55-3.45-0.5-5.17c0.15-4.89,0.52-9.78,0.73-14.67
	c0.12-2.8,0.1-5.6,0.1-8.41c0-3.78,3.79-8.83,7.36-10.14c2.23-0.82,4.25-2.23,6.5-3c0.98-0.34,2.84-0.16,3.34,0.5
	c2,2.67,4.66,1.55,7.07,1.61c2.48,0.06,4.97-0.3,7.45-0.24c3.24,0.08,6.48,0.38,9.72,0.64C111.44,104.04,112.4,104.29,113.67,104.51
	z M119.21,121.98c-0.89,0.05-1.2,0.06-1.52,0.08c-3.88,0.19-7.68,1.24-11.63,0.66c-2.87-0.42-5.8-0.46-8.71-0.47
	c-2.99-0.01-3.85,1.06-3.49,4.04c0.34,2.81,0.86,5.6,1.07,8.42c0.19,2.67,0.05,5.37,0.1,8.06c0.06,3.07,0.53,3.43,3.5,3.56
	c2.24,0.1,4.46,0.51,6.7,0.7c2.27,0.19,4.54,0.28,6.48,0.39C114.21,138.94,116.65,130.67,119.21,121.98z"/>
<path d="M235.12,722.92c1.77,0.19,3.52,1.42,5.08-0.56c0.23-0.29,1.71,0.4,2.74,0.67c2.6-1.83,4.25-1.47,6.21,1.62
	c1.84,2.9,3.58,5.86,5.55,9.11c1.65-0.86,3.5-1.83,5.36-2.78c3.56-1.81,7.02-3.86,10.72-5.31c1.82-0.71,4.07-0.29,6.12-0.44
	c1.02-0.07,2.04-0.32,3.06-0.41c1.75-0.15,3.51-0.27,5.27-0.33c0.51-0.02,1.09,0.14,1.53,0.4c1.06,0.61,2.06,1.32,3.27,2.12
	c0.22-0.67,0.37-1.14,0.53-1.65c0.21,0.1,0.42,0.18,0.62,0.29c3.54,1.9,6.66,4.36,9.36,7.33c0.82,0.9,1.56,1.92,2.1,3
	c1.16,2.3,2.33,4.62,3.19,7.04c0.83,2.33,1.34,4.79,1.82,7.22c0.16,0.8-0.04,1.8-0.42,2.53c-0.49,0.93-1.08,1.64-0.28,2.73
	c0.17,0.23-0.41,1.1-0.76,1.59c-0.92,1.27-2.01,2.42-2.82,3.75c-0.69,1.13-1.05,2.17-2.61,2.73c-1.41,0.5-2.41,2.15-3.59,3.3
	c-1.96,1.91-3.86,3.87-5.91,5.67c-0.25,0.22-1.25-0.41-2.03-0.68c-0.18,1.58-0.23,3.39-2.72,2.52c-0.2-0.07-0.73,0.8-1.25,1.39
	c-0.34-0.62-0.57-1.06-0.99-1.81c-0.19,1.14-0.32,1.95-0.5,3.01c-1.24-1.41-3.66-1.85-2.38-4.52c-0.59-0.04-1.03-0.07-1.47-0.1
	c-0.14-0.16-0.29-0.31-0.43-0.47c0.6-0.29,1.2-0.58,1.87-0.91c-1.2-0.69-2.47-1.01-3-1.82c-2.26-3.4-1.65-7.24-0.96-10.9
	c0.55-2.9,1.7-5.68,2.6-8.55c-2.16-0.67-3.76-0.81-5.35,0.73c-0.65,0.63-2.19,0.26-3.04,0.79c-3.1,1.95-6.11,4.06-9.1,6.17
	c-1.42,1-1.85,2.43-1.61,4.19c0.57,4.16,1.01,8.33,1.54,12.49c0.07,0.53,0.23,1.41,0.52,1.49c2.62,0.72,2.52,3.37,3.72,5.07
	c0.18,0.25,0.46,0.62,0.39,0.83c-1.21,3.49,1.67,5.13,3.28,7.34c0.05,0.06,0.14,0.14,0.13,0.19c-0.57,2.88,1.4,4.79,2.61,7.01
	c0.21,0.38,0.29,1.03,0.11,1.39c-1.47,2.83,0.6,5,1.34,7.38c1.28,4.1,2.73,8.14,4.08,12.21c1.06,3.19,2.08,6.39,3.12,9.58
	c-0.21,0.1-0.42,0.2-0.62,0.31c-0.4-0.27-0.8-0.54-1.2-0.81c-0.17,0.13-0.33,0.27-0.5,0.4c0.77,0.9,1.67,1.72,2.26,2.72
	c0.6,1.02,0.89,2.23,1.32,3.35c-0.35,0.09-0.69,0.19-1.04,0.28c-0.15-0.78-0.3-1.55-0.47-2.42c-1.76,0.72-2.45,2.05-1.78,3.72
	c0.7,1.75-0.46,1.59-1.44,1.72c0.47,2,0.92,3.95,1.42,6.08c-1.1-0.16-1.82-0.26-2.7-0.38c-0.19-1.76-0.27-3.6-0.66-5.37
	c-0.11-0.52-1.12-0.84-1.98-1.44c0.11,1.96,0.18,3.34,0.26,4.72c-0.33,0.19-0.65,0.38-0.98,0.57c-3.17-2.33-6.61-4.37-9.46-7.04
	c-5.73-5.38-9.54-12.04-12.04-19.53c-1.52-4.56-3.65-8.9-5.24-13.44c-1.09-3.12-1.64-6.43-2.57-9.62
	c-1.29-4.38-2.67-8.74-4.11-13.07c-0.71-2.13-2.38-1.52-3.75-0.89c-2.58,1.19-5.12,2.46-7.58,3.88c-2.42,1.39-4.85,2.04-7.69,1.72
	c-1.92-0.22-3.94,0.47-5.87,0.31c-2.25-0.19-2.48-1.09-1.63-3.21c2.61-6.49,7.24-11.38,12.23-16.06c2.55-2.39,5.09-4.92,6.96-7.83
	c0.74-1.16-0.09-3.58-0.65-5.28c-1.65-5.03-3.02-10.1-3.01-15.44c0.01-3.55,1.33-6.53,3.98-8.96
	C234.01,724.81,234.51,723.78,235.12,722.92z"/>
<path d="M83.48,480.35c0.17-2.14,0.09-4.17,0.55-6.07c0.75-3.05-0.28-6.51,2.16-9.21c0.38-0.43,0.11-1.5,0.05-2.26
	c-0.16-1.99-0.97-4.19,1.88-5.11c0.22-0.07,0.42-1.09,0.3-1.17c-2.19-1.44-0.98-3.01-0.42-4.74c0.67-2.07,0.83-4.3,1.37-6.41
	c1.92-7.45,3.79-14.92,5.93-22.3c1.64-5.64,3.62-11.19,5.55-16.74c1.2-3.46,2.78-6.79,3.86-10.28c1.11-3.59,1.77-7.32,2.7-10.97
	c0.66-2.6,0.81-5.28,2.78-7.56c1.54-1.79,2.34-4.24,3.36-6.45c0.95-2.04,3.44-4.24,4.98-4.06c2.61,0.32,4.82,1.44,6.16,3.81
	c0.19,0.34-0.08,0.94-0.17,1.67c2.16,0.91,3.31,2.85,3.48,5.55c0.07,1.12,0.7,2.2,1.08,3.31c0.07,0.21,0.24,0.44,0.21,0.63
	c-0.35,2.22-0.8,4.42-1.08,6.64c-0.21,1.61-0.13,3.25-0.32,4.86c-0.36,3.2-0.91,6.39-1.19,9.59c-0.09,1.03,0.46,2.11,0.72,3.16
	c-1.62-0.1-2.1,0.55-1.34,2.65c0.37,1.03-0.62,2.55-0.96,3.86c-0.15,0.56-0.44,1.23-0.27,1.71c0.98,2.73-0.03,5.17-0.89,7.67
	c-0.3,0.86-0.23,1.85-0.4,2.76c-0.63,3.51-1.33,7-1.91,10.51c-0.43,2.63-0.69,5.29-1.04,7.94c-0.42,3.22-0.88,6.44-1.28,9.66
	c-0.27,2.18-0.66,4.36-0.69,6.55c-0.05,4.52,0.04,9.04,0.19,13.56c0.14,4.17,0.23,8.36,0.71,12.5c0.3,2.61,1.32,5.14,1.91,7.73
	c0.19,0.85,0,1.78,0.12,2.65c0.31,2.21,0.16,4.71,1.18,6.56c2.85,5.2-1.08,9.27-1.71,13.85c-0.24,1.73-0.55,3.15-2.5,3.92
	c-0.65,0.26-0.62,1.98-1.14,2.9c-1.35,2.35-2.83,4.62-4.24,6.9c-1.47-1.32-2.59-1.13-3.89,0.55c-2.41,0-4.6,0.06-6.8-0.04
	c-0.6-0.03-1.24-0.46-1.76-0.84c-2.54-1.86-5.1-3.69-7.53-5.69c-1-0.83-1.8-1.98-2.48-3.12c-2.03-3.43-4.27-6.78-5.83-10.42
	c-2.27-5.28-3.39-10.82-1.2-16.55c-1.96,0.48-2.37,0.05-1.72-1.93c0.51-1.55,0.25-3.35,0.34-5.21c1.59-0.57,2.82-1.36,0.8-3.26
	c-0.4-0.37-0.16-1.41-0.24-2.31c0.93,0,1.56,0,2.2,0c0.03-0.15,0.06-0.3,0.09-0.45C84.58,480.68,84,480.5,83.48,480.35z"/>
<path d="M197,159.63c-1.33,1.85-2.47,3.34-3.51,4.89c-0.91,1.36-1.68,2.82-2.57,4.2c-1.12,1.73-2.57,2.34-4.72,1.87
	c-1.68-0.36-3.5-0.07-5.26-0.07c-0.1,0.3-0.2,0.6-0.3,0.9c0.61,0.89,1.22,1.78,2,2.92c-3.89,0-7.63,0-10.87,0
	c-1.74-2.12-3.71-3.93-4.89-6.16c-0.84-1.58-1.12-3.84-0.76-5.61c1.02-4.99,3.28-9.49,6.42-13.55c1.25-1.62,2.09-3.54,3.27-5.21
	c0.74-1.05,1.92-1.78,2.65-2.83c2.87-4.06,5.7-8.14,8.41-12.31c1.24-1.9,1.74-4.45,3.32-5.9c2.41-2.22,3.56-5.02,4.75-7.78
	c1.85-4.3,3.42-8.75,4.82-13.22c1.27-4.03,2.15-8.18,3.22-12.27c0.42-1.61,0.79-3.24,1.34-4.81c1.58-4.49,3.28-8.93,4.85-13.42
	c1.12-3.2,1.71-6.64,3.23-9.63c1.47-2.9,3.54-5.64,5.9-7.87c1.32-1.25,3.73-1.52,5.71-1.81c0.59-0.09,1.86,1.16,2,1.95
	c0.48,2.57,1.7,4.06,4.76,4.09c0,1.62,0.01,3.16,0,4.7c0,0.58-0.1,1.16-0.08,1.74c0.17,4.61,0.74,9.24,0.42,13.81
	c-0.26,3.74-1.64,7.38-2.39,11.1c-0.69,3.42-1.16,6.88-1.77,10.31c-0.42,2.37-1.02,4.72-1.34,7.1c-0.08,0.6,0.46,1.48,0.98,1.94
	c2.47,2.19,5.26,4.06,7.47,6.47c1.66,1.8,2.61,4.25,3.86,6.43c4.89,8.51,10.56,16.49,17.78,23.13c3.66,3.37,5.24,7.83,7.9,11.7
	c0.4,0.59,0.19,1.59,0.74,2.28c0.33,0.85,0.8,1.68,0.97,2.56c0.57,3.03,0.59,6.04-0.25,9.07c-0.81,2.93-3.29,4.96-6.03,4.06
	c-1.46-0.48-2.75-1.25-4.42-1.4c-6.5-0.6-12.51-2.81-17.47-7.09c-4.92-4.24-10.74-7.51-14.58-12.93c-2.25-3.18-4.22-6.56-6.3-9.86
	c-0.18-0.28-0.22-0.67-0.44-0.9c-1.2-1.24-2.43-2.44-3.66-3.65c-0.66,1.02-1.3,2.05-1.97,3.05c-2.79,4.19-5.64,8.36-8.38,12.59
	c-1.07,1.66-3.4,2.39-3.47,4.84C198.35,159.34,197.08,159.59,197,159.63z"/>
<path d="M126.15,624.88c1.98,4.07,0.23,8.61-0.57,13.23c5.27,0.87-0.28,2.17,0.41,3.39c3.29,0.42,5.87-1.76,8.83-2.5
	c3.29-0.82,6.23-3.21,10.02-2.13c1.03,0.29,2.41-0.64,4.33-1.22c-0.42,1.75-0.75,3.03-1.04,4.32c-0.42,1.87-0.79,3.75-1.23,5.61
	c-0.39,1.67-0.8,3.38-3.13,3.34c-0.11,1.9,0.14,3.69-2.63,4.46c-1.41,0.39-2.28,2.78-3.36,4.3c-0.5,0.7-0.75,1.71-1.4,2.14
	c-2.17,1.42-2.34,3.66-2.83,5.85c-0.31,1.4-0.87,2.74-1.43,4.47c-1,0.22-3.52-0.86-2.91,2.64c-0.67-0.42-1.07-0.66-1.75-1.09
	c-1.02,1.79-1.71,3.94-3.16,5.24c-0.99,0.89-3.04,0.63-4.63,0.77c-0.51,0.05-1.04-0.25-1.6-0.4c-0.15-1.23-0.31-2.49-0.53-4.31
	c-2.48,3.01-2,5.66-0.7,8.65c-2.32-2.12-2.32-2.12-2.13-4.68c0.17-2.25-0.94-2.87-3.48-1.82c0.24,0.77,0.48,1.56,0.61,1.99
	c-1.02,0.57-1.85,1.04-2.68,1.5c-0.47,0.26-0.95,0.52-1.42,0.78c-0.23-0.58-0.45-1.17-0.73-1.89c0.02,0-0.38,0.04-0.79,0.08
	c-0.07-0.17-0.15-0.34-0.22-0.51c0.76-0.41,1.51-0.83,2.07-1.13c-3.33-1.51-6.85-2.77-9.99-4.67c-1.92-1.16-4.72-2.38-3.64-5.76
	c0.1-0.33-0.52-0.88-0.65-1.09c0.18-1.27,0.35-2.42,0.54-3.78c0.25,0.02,0.87,0.06,1.48,0.1c0.08-0.18,0.16-0.35,0.24-0.53
	c-0.5-0.35-1.01-0.69-1.51-1.04c-0.89-0.63-1.64-1.09-1.44-2.61c0.19-1.4-0.74-2.92-0.88-4.41c-0.12-1.23,0.35-2.52,0.29-3.77
	c-0.07-1.62-0.2-3.28-0.65-4.83c-0.73-2.54-0.83-2.61,0.36-3.72c0-2.31-0.09-4.14,0.02-5.96c0.14-2.11-0.97-4.44,1.24-6.27
	c0.34-0.28-0.46-1.85-0.61-2.85c-0.12-0.76-0.4-1.96-0.03-2.25c1.37-1.1,1.26-2.45,1.5-3.98c0.75-4.89,1.9-9.71,2.84-14.57
	c0.31-1.6,0.18-3.33,0.7-4.84c1.32-3.79,2.64-7.58,5.31-10.75c0.83-0.99,1.16-2.4,1.75-3.6c1.49-3.07,4.02-5.27,6.9-6.71
	c6.54-3.26,10.96-0.6,12.93,5.82c0.93,3.04,0.84,6.39,1.25,9.6c0.26,2.05,0.79,4.09,0.81,6.14c0.05,5.64-0.01,11.29-0.25,16.92
	c-0.08,1.83-0.46,3.52,0.56,5.27C127.41,622.3,126.65,623.4,126.15,624.88z"/>
<path d="M253.75,15.05c0.97-0.89,1.77-2.23,2.63-2.28c2.4-0.13,4.84,0.19,7.25,0.5c1.86,0.23,3.75,0.54,5.52,1.13
	c1.34,0.44,2.78,1.12,3.72,2.12c2.84,3.05,3.05,6.89,2.54,10.79c-0.31,2.41-1.12,4.79-1.21,7.2c-0.21,5.62-3.92,9.98-5.21,15.21
	c-0.2,0.8-2.03,1.2-3.33,1.91c0.89,2.83-1.19,1.86-2.92,1.36c-0.71,2.61-2.35,3.28-4.79,2.73c-0.43-0.1-1.14,0.69-1.61,1.17
	c-3.08,3.23-6.1,6.51-9.19,9.73c-0.41,0.42-1.05,0.62-2.2,1.27c0.84-2.91,1.57-5.16,2.06-7.45c0.07-0.33-0.98-1.3-1.5-1.29
	c-1.84,0.05-1.92-0.54-1.35-2.11c0.86-2.34,1.42-4.79,2.09-7.2c0.54-1.98,0.29-2.36-1.95-2.82c1.32-4.62,2.64-9.23,4.14-14.48
	c-7.09,0-13.77-0.04-20.45,0.01c-4.12,0.03-8.25,0.09-12.36,0.35c-2.9,0.18-5.78,0.67-8.65,1.12c-4.41,0.7-5.9,4.25-6.67,7.83
	c-1.19,5.55-4.3,9.58-9.37,11.35c-3.31,1.15-7.22,0.61-10.87,0.77c-1.79,0.08-3.58,0.01-4.67,0.01c-0.42-2.44-1.09-4.27-0.95-6.04
	c0.23-2.85,0.99-5.66,1.56-8.48c0.1-0.48,0.53-0.9,0.59-1.37c0.86-6.54,4.76-11.87,7.8-17.3c3.98-7.09,9.24-13.73,18.08-15.71
	c0.48-0.11,0.94-0.33,1.41-0.52c2.98-1.17,5.78,0.84,5.32,4.02c-0.39,2.74-1.17,5.42-1.76,8.13c-0.3,1.4,0.38,1.85,1.67,1.66
	c2.76-0.41,5.51-0.94,8.29-1.23c6.56-0.69,13.14-1.18,19.7-1.94c4.7-0.55,9.41-1.22,14.03-2.22
	C253.28,12.55,254.04,12.86,253.75,15.05z"/>
<path d="M59.33,64.02c-0.27-0.81-0.45-1.32-0.66-1.96c-0.85,0.62-1.58,1.15-2.31,1.68c-0.19-0.14-0.37-0.28-0.56-0.42
	c4.89-4.6,4.45-11.33,7.17-16.78c2.32-4.65,5.27-8.88,9.04-12.55c2.48-2.42,4.38-5.47,6.98-7.73c3.93-3.41,8.24-6.37,12.38-9.54
	c1.58-1.21,3-2.67,4.69-3.69c3.66-2.21,7.28-4.68,11.25-6.12c2.64-0.96,5.88-0.49,8.82-0.28c0.62,0.04,1.78,1.92,1.59,2.66
	c-1.77,6.58-4.46,12.7-8.95,18c-2.9,3.42-5.02,7.51-8.03,10.81c-4.27,4.68-8.87,9.11-13.67,13.25c-2.72,2.34-6.05,4.04-9.28,5.7
	c-1.05,0.54-2.4,0.41-3.44,1.44c-0.41,0.4-1.94,0.24-2.52-0.22c-2.14-1.7-3.67-0.44-5.32,0.74C64.24,60.62,61.93,62.2,59.33,64.02z"
	/>
<path d="M170.99,54.41c-1.08,0.08-2.16,0.16-3.25,0.25c0.01-0.18,0.01-0.36,0.02-0.54c0.41-0.26,0.82-0.51,1.23-0.77
	c-0.41-0.42-0.81-0.84-1.22-1.25c-0.51,0.97-1.03,1.93-1.54,2.9c0.12,0.05,0.23,0.1,0.35,0.14c-1.64,1.35-3.48,2.52-4.87,4.1
	c-2.69,3.05-6.85,2.97-9.37-0.38c-0.35-0.46-0.93-0.89-1.48-1.04c-4.83-1.33-9.9-2.17-13.75-5.74c-2.73-2.53-5.99-4.63-7.34-8.44
	c-0.4-1.14-1.35-2.08-2.03-3.13c-2.72-4.22-4.54-8.63-3.5-13.84c0.45-2.26,0.41-4.61,0.71-6.9c0.2-1.53,4.46-5.52,5.93-5.52
	c0.67,0,1.39,0.47,2,0.85c3.16,1.97,6.38,3.86,9.41,6.03c2.57,1.84,4.89,4,7.32,6.03c0.26,0.21,0.43,0.54,0.71,0.7
	c2.72,1.46,5.6,2.68,8.13,4.41c2.33,1.59,4.28,3.73,6.38,5.64c0.84,0.76,1.62,1.58,2.42,2.38c0.34,0.34,0.84,0.66,0.96,1.08
	c0.86,3.15,1.7,6.3,2.43,9.48c0.2,0.87,0.03,1.83,0.03,2.74C170.78,53.87,170.89,54.14,170.99,54.41z"/>
<path d="M265.1,702.63c0.16-4.3,0.39-3.72,4.87-5.5c5.42-2.15,9.94-1.02,14.49,1.72c0.69,0.42,1.2,1.15,1.75,1.78
	c0.64,0.73,1.24,1.5,1.87,2.23c0.08,0.09,0.41,0.04,0.42,0.1c0.51,2.82,1.42,5.65,1.34,8.45c-0.06,2.24-1.6,4.28-3.92,5.22
	c-1.77,0.72-3.66,1.88-5.4,1.74c-3.6-0.3-7.03-1.68-9.83-4.1C266.58,710.72,264.93,707.13,265.1,702.63z"/>
<path class="st0" d="M119.21,121.98c-2.56,8.68-5,16.96-7.51,25.44c-1.94-0.11-4.21-0.2-6.48-0.39c-2.24-0.19-4.46-0.6-6.7-0.7
	c-2.97-0.14-3.44-0.49-3.5-3.56c-0.05-2.69,0.09-5.38-0.1-8.06c-0.2-2.82-0.72-5.61-1.07-8.42c-0.36-2.97,0.49-4.05,3.49-4.04
	c2.91,0.01,5.84,0.05,8.71,0.47c3.96,0.58,7.76-0.47,11.63-0.66C118.01,122.05,118.33,122.03,119.21,121.98z"/>
</svg>
