<?xml version="1.0" encoding="utf-8"?>
<!-- Generator: Adobe Illustrator 25.4.1, SVG Export Plug-In . SVG Version: 6.00 Build 0)  -->
<svg version="1.1" id="レイヤー_1" xmlns="http://www.w3.org/2000/svg" xmlns:xlink="http://www.w3.org/1999/xlink" x="0px"
	 y="0px" viewBox="0 0 595.28 841.89" style="enable-background:new 0 0 595.28 841.89;" xml:space="preserve">
<style type="text/css">
	.st0{fill:none;}
</style>
<path d="M343.43,209.28c-1.6,0.43-3.19,0.86-4.62,1.24c0.43,0.93,0.83,1.79,1.26,2.69c-3.03-0.27-5.5-0.44-7.95-0.76
	c-0.7-0.09-1.47-0.49-1.98-0.99c-1.41-1.37-2.52-3.13-4.09-4.25c-2.75-1.97-3.22-5.13-4.24-7.83c-2.42-6.42-2.4-13.22-2.11-20.02
	c0.1-2.34-0.47-4.71-0.77-7.06c-0.59-4.64-1.32-9.27-1.77-13.93c-0.27-2.74,0.03-5.54-0.18-8.29c-0.32-4.28-0.88-8.54-1.31-12.81
	c-0.36-3.57-0.72-7.14-0.98-10.71c-0.32-4.29-0.64-8.59-0.75-12.89c-0.12-4.5-0.07-9.01,0.06-13.51c0.13-4.63,0.42-9.26,0.68-13.89
	c0.19-3.48,0.78-6.97,0.55-10.41c-0.14-2.15-1.48-4.21-2.28-6.31c-0.3,0.04-0.6,0.09-0.9,0.13c0.88-1.38,2.22-2.68,2.5-4.17
	c0.29-1.58-0.13-3.48-0.81-4.99c-1.44-3.2-0.64-6.22,0.57-9.07c0.41-0.96,2.27-1.25,3.4-1.95c1.55-0.96,3.12-1.92,4.54-3.05
	c2.51-2.01,5.06-4.01,7.35-6.26c5.93-5.83,11.86-11.68,17.56-17.73c6.6-7.01,14.09-12.36,23.71-14.26c1.89-0.37,3.78-1.13,5.66-1.08
	c5.36,0.15,8.58,5.72,6.04,10.52c-2.41,4.55-5.18,8.91-7.79,13.36c-0.08,0.14-0.22,0.26-0.34,0.38c-2.33,2.28-4.65,4.58-7.01,6.83
	c-0.67,0.64-1.43,1.21-2.22,1.69c-3,1.83-6.14,3.45-9.02,5.46c-2.11,1.47-3.89,3.41-5.56,5.67c2.11-0.09,4.22-0.31,6.32-0.26
	c4.92,0.14,9.87,0.12,14.75,0.69c8.13,0.94,16.22,0.24,24.32-0.13c5.76-0.26,11.5-1.06,17.25-1.6c7.16-0.67,14.19-0.01,21.3,1.14
	c7.45,1.21,14.81,2.48,22.44,5.64c-1.52,0.33-2.51,0.54-3.6,0.78c-1.93,2.7,1.16,4.06,2.1,5.76c1.23,2.25,1.46,4.83,0.45,6.27
	c-2.39,3.42-1.34,7.02-1.63,10.51c-0.55,6.77-0.86,13.56-1.15,20.35c-0.14,3.41,0.25,6.85-0.09,10.23
	c-0.43,4.18-0.18,8.16,0.89,12.26c0.65,2.51,0.03,5.34,0.16,8.02c0.12,2.53,0.51,5.05,0.72,7.58c0.53,6.45,0.86,12.93,1.58,19.36
	c0.67,5.97,1.78,11.89,2.64,17.84c0.51,3.49,0.96,7,1.34,10.51c0.42,3.86,0.67,7.74,1.08,11.6c0.49,4.63-1.81,7.18-5.95,8.69
	c-1.29,0.47-2.33,1.59-3.16,2.66c-1.25,0.15-2.49,0.35-3.74,0.44c-1.92,0.14-4.09-0.34-5.71,0.41c-2.52,1.16-4.29-0.73-6.45-0.77
	c-4.72-0.09-9.44-0.24-14.15-0.51c-1.75-0.1-3.47-0.74-5.22-0.93c-3.36-0.36-6.73-0.71-10.11-0.79c-3.92-0.09-7.86,0.21-11.78,0.16
	c-3.44-0.04-6.87-0.51-10.3-0.43c-7.19,0.17-14.37,0.5-21.55,0.93c-5.93,0.35-11.85,0.91-17.77,1.41c-0.75,0.06-1.48,0.34-2.22,0.52
	L343.43,209.28z M422.66,72.86c-3.86-0.47-7.79-1.38-11.7-1.31c-4.78,0.1-9.55,1.03-14.32,1.59c-0.5,0.06-1.02,0.05-1.53,0.03
	c-5.06-0.14-10.13-0.49-15.19-0.36c-4.91,0.12-9.86,0.42-14.69,1.22c-4.87,0.81-9.88-1.06-14.71,1.42
	c-2.63,1.35-5.94,1.33-8.85,2.23c-0.84,0.26-1.92,1.58-1.91,2.39c0.04,2.44,0.55,4.87,0.91,7.3c0.55,3.74,1.33,7.46,1.65,11.22
	c0.27,3.15,0.4,3.47,3.66,3.05c4.28-0.55,8.55-1.25,12.84-1.61c8.6-0.72,17.2-1.42,25.81-1.79c6.6-0.29,13.23-0.31,19.82,0.01
	c5.26,0.26,10.67-0.53,15.71,2.24c2.53,1.39,4.1-0.16,3.93-3.19C423.63,89.35,423.16,81.38,422.66,72.86z M423.07,120.34
	c-1.1,0-1.95-0.03-2.79,0.01c-3.72,0.16-7.43,0.51-11.14,0.45c-3.97-0.06-7.92-0.57-11.89-0.75c-3.96-0.17-7.95-0.01-11.9-0.29
	c-3.94-0.28-7.85-0.93-11.77-1.43c-0.92-0.12-1.93-0.56-2.75-0.33c-4.73,1.31-9.42,0.61-14.14,0.02c-1.08-0.14-2.23-0.04-3.29,0.19
	c-2.23,0.48-4.48,0.96-6.59,1.78c-0.91,0.35-2.04,1.51-2.1,2.37c-0.14,1.98,0.26,4,0.54,5.99c0.7,5.01,1.54,10.01,2.17,15.04
	c0.32,2.57,1.07,3.28,3.42,2.53c7.14-2.27,14.5-3.42,21.93-3.64c9.51-0.29,19.04-0.11,28.56-0.12c7.96-0.01,15.92,0,24.18,0
	C424.71,135.11,423.9,127.85,423.07,120.34z M419.53,183.87c0-0.03,0-0.05,0-0.08c1.19,0,2.39-0.08,3.57,0.02
	c2.35,0.18,3.14-0.82,2.98-3.15c-0.29-4.13-0.48-8.28-0.47-12.42c0.01-2.15-0.89-2.82-2.85-2.92c-1.67-0.09-3.31-0.49-4.97-0.73
	c-1.08-0.16-2.17-0.33-3.26-0.42c-3.84-0.31-7.68-0.54-11.51-0.88c-3.86-0.35-7.72-1.13-11.57-1.12c-3.79,0.01-7.56,1.02-11.36,1.16
	c-5.44,0.2-10.89-0.01-16.33-0.02c-4.04-0.01-8.08-0.06-12.12,0.13c-0.84,0.04-2.3,0.97-2.33,1.55c-0.14,2.74,0.15,5.5,0.22,8.26
	c0.09,3.46,0.16,6.92,0.12,10.38c-0.02,1.45,0.35,2.31,1.94,2.24c2.37-0.11,4.74-0.17,7.11-0.33c3.81-0.26,7.62-0.52,11.41-0.88
	c5.82-0.55,11.63-1.52,17.46-1.69c5.05-0.14,10.11,0.73,15.18,0.88C408.33,184.01,413.93,183.87,419.53,183.87z"/>
<path d="M343.36,209.33c1.63,0.56,2.19,1.48,0.84,3.28c-0.79-0.62-1.54-1.2-2.26-1.76c0.57-0.6,1.03-1.08,1.49-1.57
	C343.43,209.28,343.36,209.33,343.36,209.33z"/>
<path class="st0" d="M422.66,72.86c0.5,8.52,0.97,16.49,1.43,24.47c0.18,3.04-1.4,4.58-3.93,3.19c-5.04-2.77-10.45-1.98-15.71-2.24
	c-6.59-0.32-13.23-0.3-19.82-0.01c-8.61,0.37-17.22,1.07-25.81,1.79c-4.3,0.36-8.56,1.06-12.84,1.61c-3.27,0.42-3.39,0.09-3.66-3.05
	c-0.32-3.76-1.1-7.48-1.65-11.22c-0.36-2.43-0.87-4.86-0.91-7.3c-0.01-0.82,1.07-2.13,1.91-2.39c2.91-0.9,6.22-0.88,8.85-2.23
	c4.83-2.49,9.84-0.62,14.71-1.42c4.84-0.8,9.78-1.1,14.69-1.22c5.06-0.13,10.12,0.22,15.19,0.36c0.51,0.01,1.03,0.03,1.53-0.03
	c4.77-0.56,9.54-1.49,14.32-1.59C414.87,71.47,418.8,72.39,422.66,72.86z"/>
<path class="st0" d="M423.07,120.34c0.83,7.51,1.64,14.77,2.42,21.82c-8.26,0-16.22-0.01-24.18,0c-9.52,0.01-19.04-0.18-28.56,0.12
	c-7.43,0.23-14.79,1.38-21.93,3.64c-2.36,0.75-3.1,0.04-3.42-2.53c-0.62-5.02-1.46-10.02-2.17-15.04c-0.28-1.99-0.68-4.02-0.54-5.99
	c0.06-0.86,1.19-2.02,2.1-2.37c2.11-0.82,4.37-1.3,6.59-1.78c1.06-0.23,2.22-0.32,3.29-0.19c4.72,0.59,9.41,1.28,14.14-0.02
	c0.82-0.23,1.83,0.22,2.75,0.33c3.92,0.5,7.83,1.15,11.77,1.43c3.95,0.28,7.94,0.12,11.9,0.29c3.97,0.17,7.92,0.69,11.89,0.75
	c3.71,0.06,7.43-0.3,11.14-0.45C421.12,120.31,421.97,120.34,423.07,120.34z"/>
<path class="st0" d="M419.53,183.87c-5.6,0-11.2,0.13-16.79-0.04c-5.07-0.16-10.13-1.03-15.18-0.88
	c-5.83,0.17-11.64,1.14-17.46,1.69c-3.8,0.36-7.61,0.63-11.41,0.88c-2.37,0.16-4.74,0.22-7.11,0.33c-1.59,0.07-1.96-0.78-1.94-2.24
	c0.04-3.46-0.04-6.92-0.12-10.38c-0.07-2.76-0.36-5.52-0.22-8.26c0.03-0.58,1.49-1.52,2.33-1.55c4.03-0.18,8.08-0.13,12.12-0.13
	c5.45,0.01,10.9,0.22,16.33,0.02c3.8-0.14,7.57-1.15,11.36-1.16c3.86-0.01,7.71,0.77,11.57,1.12c3.83,0.35,7.68,0.58,11.51,0.88
	c1.09,0.09,2.18,0.26,3.26,0.42c1.66,0.24,3.31,0.65,4.97,0.73c1.97,0.1,2.86,0.77,2.85,2.92c-0.01,4.14,0.18,8.29,0.47,12.42
	c0.16,2.33-0.63,3.33-2.98,3.15c-1.18-0.09-2.38-0.02-3.57-0.02C419.53,183.82,419.53,183.85,419.53,183.87z"/>
<path d="M415.99,392.06c0.9-0.57,1.63-1.03,2.7-1.7c-2.75-1.34-2.7-3.2-1.9-5.33c0.67-1.8,1.24-3.65,1.77-5.5
	c0.11-0.38-0.1-0.88-0.23-1.31c-0.13-0.44-0.52-0.86-0.49-1.27c0.18-2.34,0.52-4.68,0.67-7.02c0.05-0.87-0.28-1.75-0.47-2.8
	c0.37-0.35,0.85-0.81,1.33-1.27c-0.25,0-0.5,0.01-0.75,0.01c-0.23-0.74-0.69-1.5-0.66-2.23c0.18-3.78,0.67-7.54,0.66-11.32
	c0-1.44-1.24-2.84-1.55-4.33c-0.28-1.36-0.06-2.82-0.06-4.82c-1.41,0.24-3.08,0.52-4.75,0.82c-0.37,0.07-0.79,0.37-1.08,0.26
	c-4.2-1.51-8.44-0.31-12.66-0.27c-0.89,0.01-1.81-0.27-2.67-0.54c-1.84-0.58-2.9,0.18-3.62,1.83c-1.35,3.07-1.84,6.26-1.59,9.58
	c0.01,0.15,0.17,0.35,0.11,0.43c-2.03,2.96,0.07,6.56-1.49,9.65c-0.36,0.72,0.3,1.91,0.34,2.89c0.04,1.09-0.06,2.2-0.14,3.29
	c-0.2,2.76-0.43,5.52-0.64,8.27c-0.01,0.07,0.06,0.15,0.05,0.22c-0.54,4.22-1.09,8.45-1.61,12.67c-0.19,1.55-0.25,3.12-0.5,4.66
	c-0.37,2.29-1.43,4.63-1.14,6.81c0.27,2.01-0.24,3.54-0.91,5.19c-0.22,0.54-0.79,0.95-1.32,1.55c0.6,3.24,0.02,4.14-3.02,3.19
	c0.52,0.81,0.75,1.24,1.05,1.62c0.37,0.46,0.79,0.88,0.93,1.04c-0.72,1.39-1.07,2.78-1.95,3.58c-1.06,0.97-1.94,1.89-2.59,3.21
	c-0.54,1.11-1.93,1.83-0.91,3.4c0.11,0.18-0.54,1.16-1,1.33c-1.66,0.63-2.11,1.62-1.12,3.2c-3,1.12-2.62,3.5-2.58,5.87
	c-0.41,0.09-1.22,0.03-1.41,0.35c-2.56,4.26-5.89,7.99-8.47,12.17c-1.88,3.05-4.73,4.93-6.83,7.6c-0.39,0.5-0.55,1.19-0.8,1.8
	c-0.28,0.68-0.42,1.44-0.81,2.05c-0.72,1.14-1.57,2.19-2.29,3.18c-2.36,1.06-4.81,2.13-7.23,3.26c-1.28,0.6-2.5,1.31-4.32,2.27
	c0.42-1.18,0.61-1.69,0.84-2.34c-1.01,0.09-1.9,0.17-3.36,0.3c0.79-0.97,1.19-1.45,1.71-2.09c-3.28-2.54-4.83,1.77-7.57,1.43
	c0-0.31,0-0.86,0-1.47c-0.79,0.71-1.5,1.35-2.21,1.99c-0.26-0.11-0.53-0.23-0.79-0.34c1.5-5.97,2.95-11.95,4.51-17.9
	c0.77-2.93,1.54-5.88,2.66-8.68c1.03-2.57,2.22-5.19,3.89-7.37c2.14-2.8,2.93-6.35,4.97-8.96c2.61-3.33,3.7-7.22,5.63-10.77
	c0.23-0.41,0.73-0.67,1.11-1.01c-0.2-0.1-0.4-0.2-0.6-0.3c0.38-1.02,0.83-2.03,1.12-3.08c0.74-2.71,1.32-5.46,2.13-8.15
	c1.41-4.73,3.12-9.39,4.36-14.16c0.82-3.18,0.9-6.55,1.58-9.79c0.62-3,1.66-5.91,2.4-8.89c1.67-6.64,3.27-13.29,4.96-20.23
	c-2.4,0.13-4.53,0.4-6.66,0.34c-4.34-0.11-8.7-0.23-13.02-0.66c-3.22-0.32-6.42-1.04-9.58-1.8c-1.67-0.4-3.2-1.34-4.84-1.89
	c-1.28-0.43-2.66-0.55-3.94-0.96c-0.81-0.26-1.52-0.82-2.28-1.24c0.42-0.57,0.71-1.37,1.27-1.68c5.6-3.06,10.41-7.82,17.31-8.11
	c0.4-0.02,0.88-0.33,1.15-0.65c2.18-2.61,4.94-3.67,8.34-3.93c3.1-0.24,6.2-1.9,9.21-1.69c3.73,0.25,7.1-1.5,10.92-0.85
	c2.88,0.49,6.03-0.69,9.07-0.92c5.55-0.42,11.11-0.68,16.66-1.02c4.09-0.25,8.19-0.7,12.28-0.76c4.74-0.06,9.54-0.16,14.2,0.5
	c2.43,0.34,4.76,1.62,7.4,1.49c0.51-0.03,1.31,0.79,1.57,1.39c1.57,3.69,2.99,7.44,4.54,11.14c0.19,0.45,0.83,0.71,0.99,0.84
	c-0.16,1.65-0.5,3.14-0.4,4.61c0.22,3.24,0.73,6.46,1,9.71c0.36,4.27,0.71,8.55,0.84,12.83c0.07,2.23-0.49,4.47-0.51,6.71
	c-0.02,1.81,0.43,3.62,0.51,5.43c0.05,1.09-0.22,2.19-0.04,3.35c-0.05,0.74-0.08,1.47-0.14,2.21c-0.14,1.64-0.43,3.28-0.41,4.92
	c0.03,2.11,0.66,4.26-0.78,6.18c-0.11,0.15-0.13,0.55-0.02,0.64c2.05,1.68,0.21,2.73-0.63,3.97c1.51,2.94,1.34,5.9-0.06,8.85
	c-0.13,0.27-0.53,0.69-0.49,0.74c2.23,2.27-0.7,4.69,0.2,7.03c0.18,0.46-0.46,1.24-0.89,2.28c1.42,2.62,1.42,2.62-1.07,2.98
	c-0.27,1.56-0.52,3.01-0.76,4.47c-0.05,0.29-0.11,0.63-0.02,0.89c0.97,2.55-0.09,4.69-1.22,6.87c-0.37,0.71-0.52,1.64-0.44,2.44
	c0.18,1.72-0.39,2.9-1.81,3.91c-0.56,0.39-1.17,1.62-0.95,2.05c1.12,2.17-0.72,3.41-1.38,4.98c-0.16,0.38-1.11,0.43-1.68,0.63
	c-3.02,4.84-6.09,9.76-9.32,14.92c1.14,0.43,1.81,0.69,2.53,0.96c-0.69,0.76-1.27,1.4-1.86,2.05c0.1,0.14,0.21,0.28,0.31,0.43
	c0.53-0.09,1.07-0.17,2-0.32c-0.34,1.06-0.37,2.14-0.93,2.65c-0.79,0.71-1.93,1.09-2.98,1.44c-0.67,0.22-1.52,0.36-2.15,0.13
	c-2.35-0.84-4.2-0.11-6.15,1.26c-2.61,1.85-5.35,3.56-8.21,5c-1.41,0.71-2.15-0.48-2.35-1.94c-0.16-1.21-0.7-2.39-0.74-3.59
	c-0.04-1.01,0.16-2.18,0.66-3.04c2.68-4.6,3.48-9.73,4.56-14.82c0.88-4.11,2.26-8.11,3.34-12.18c1.07-4.02,2.05-8.07,3.08-12.1
	c0.49-1.91,1.14-3.8,1.43-5.74c0.35-2.31,0.53-4.76,0.93-6.94c0.47-2.51-0.28-4.94,0.43-7.39c0.59-2.02,0.34-4.17,1.15-6.3
	c0.62-1.62-0.28-3.82-0.47-5.76C416.08,393.79,416.04,392.83,415.99,392.06z"/>
<path d="M489.67,324.56c0,0.67-0.1,1.36,0.02,2.01c0.24,1.29,0.97,2.62,0.79,3.82c-0.13,0.87-1.43,1.56-2.18,2.35
	c-0.61,0.64-1.39,1.21-1.74,1.98c-0.38,0.83-0.06,2.41-0.57,2.68c-1.15,0.62-2.78,1.16-3.95,0.82c-5.92-1.74-11.88-3.46-17.57-5.82
	c-2.72-1.13-4.81-3.73-7.26-5.55c-1.44-1.07-3.04-1.94-4.56-2.9c-0.31-0.2-0.71-0.37-0.87-0.66c-1.5-2.72-3.68-4.71-6.13-6.6
	c-1.51-1.17-2.41-3.11-3.7-4.6c-2.1-2.45-4.24-4.88-6.47-7.2c-4.83-5.02-9.91-9.81-14.54-15.01c-3.34-3.75-6.1-8.01-9.13-12.03
	c-1.55-2.05-3-4.19-4.75-6.06c-2.65-2.85-2.5-6.35-2.49-9.77c0.01-4.28,1.65-8.15,3.69-11.82c0.34-0.61,1.27-1.26,1.93-1.27
	c3.5-0.02,6.87,0.09,9.71,2.91c2.26,2.25,5.17,3.82,7.7,5.81c1.32,1.04,2.48,2.3,3.67,3.5c3.92,3.96,7.69,8.07,11.75,11.88
	c3.34,3.13,7.06,5.83,10.48,8.88c1.19,1.06,1.87,2.68,2.97,3.87c4,4.3,8.05,8.54,12.13,12.76c4.79,4.95,9.79,9.72,14.35,14.86
	c1.99,2.25,3.07,5.28,4.67,7.89c0.71,1.16,1.69,2.16,2.55,3.24C490.01,324.54,489.84,324.55,489.67,324.56z"/>
<path d="M328.32,327.74c-1.16,0.07-1.98,0.12-2.8,0.18c0.09,0.35,0.18,0.69,0.28,1.09c-0.49,0-1.21,0-1.27,0
	c-0.87,0.92-1.28,1.56-1.86,1.94c-1.72,1.1-3.44,2.24-5.29,3.07c-1.03,0.46-2.32,0.31-3.49,0.48c-0.62,0.09-1.61,0.08-1.78,0.43
	c-1.51,3.13-3.97,2.47-6.48,1.79c-0.55,0.59-1.02,1.3-1.67,1.74c-0.58,0.4-1.37,0.51-2.06,0.75c-0.19-0.77-0.75-1.67-0.51-2.27
	c0.72-1.82,1.63-3.59,2.68-5.25c1.12-1.78,2.16-3.45,0.73-5.62c1.07-0.64,3.9-0.3,1.58-2.8c0.57-0.48,1.02-0.86,1.58-1.33
	c-0.32-0.36-0.62-0.7-0.83-0.93c1.51-2.17,3.25-4.03,4.85-5.8c1.59-1.76,2.54-3.97,4.38-5.6c1.85-1.64,2.7-4.35,4.27-6.37
	c2.39-3.09,4.7-6.17,8.13-8.43c2.25-1.48,3.51-4.39,5.42-6.47c3.68-4.02,7.57-7.84,11.23-11.87c3.8-4.19,7.48-8.5,11.11-12.84
	c1.81-2.17,3.12-4.83,5.15-6.74c4.58-4.29,9.38-8.42,15.57-10.23c1.18-0.34,3.04,0.06,3.99,0.84c1.73,1.44,1.64,3.77,1.17,5.81
	c-1.06,4.63-1.84,9.41-3.65,13.75c-1.98,4.77-3.12,9.99-6.54,14.14c-1.14,1.39-1.77,3.19-2.83,4.66c-1.83,2.53-3.88,4.91-5.71,7.44
	c-0.52,0.71-0.36,2.07-0.97,2.52c-3.58,2.7-5.53,6.92-9.1,9.62c-0.68,0.52-1.01,1.48-1.57,2.19c-0.68,0.85-1.4,1.67-2.15,2.46
	c-0.36,0.38-0.99,0.58-1.23,1.01c-1.9,3.43-5.23,5.27-8.18,7.52c-2.88,2.19-5.76,4.38-8.65,6.56c-0.23,0.17-0.59,0.39-0.82,0.33
	C328.92,324.93,328.48,326.28,328.32,327.74z"/>
<path d="M409.64,725.01c-0.29,0.44-0.58,0.87-0.87,1.31c-0.33-0.35-0.69-0.67-0.98-1.04c-0.75-0.99-1.47-2.01-2.33-3.2
	c-0.76,0.47-1.51,1.1-2.38,1.41c-0.67,0.23-1.49,0.05-2.41,0.05c0.54-1.05,0.89-1.74,1.24-2.43c-0.14-0.13-0.27-0.25-0.41-0.38
	c-0.78,0.69-1.55,1.37-2.32,2.05c-2.42-2.29-6.69-3.46-8.66-2.36c-0.35-0.52-0.7-1.05-1.05-1.57c-0.11,0.03-0.22,0.07-0.34,0.1
	c0.08,0.49,0.17,0.99,0.27,1.61c-0.97-0.08-1.89-0.16-3.08-0.25c-0.25-0.38-0.66-0.99-1.2-1.79c0,0.67,0,1.17,0,1.97
	c-1.04-1-1.88-1.63-3.24-1.7c-1.28-0.06-2.51-0.97-3.73-1.49c-0.05-0.87-0.11-1.75-0.16-2.64c-0.2-0.02-0.41-0.05-0.61-0.07
	c-0.21,0.45-0.42,0.9-0.76,1.65c-0.79-1.45-1.45-2.66-2.23-4.1c-0.15,0.04-0.64,0.19-1.55,0.45c0.45-0.93,0.71-1.47,1.22-2.53
	c-1.06,0.29-1.77,0.49-2.91,0.81c-0.5-1.28-1.07-2.71-1.76-4.46c-0.26-0.16-0.93-0.56-1.7-1.02c-0.1,0.27-0.23,0.62-0.37,1
	c-0.18-0.11-0.42-0.21-0.41-0.25c0.49-1.78-1.21-2.31-1.97-3.32c-1.1-1.46-3.94-1.26-3.87-3.93c-1.79,0.17-1.52-1.54-2.24-2.35
	c-1.47-1.63-2.14-3.43-2.68-5.5c-0.69-2.61-2.06-5.04-2.84-7.64c-0.37-1.22-0.06-2.65-0.06-4.08c0.52,0.22,0.84,0.35,0.91,0.38
	c0.44-1.08,0.89-2.15,1.39-3.38c-0.4-0.09-1.05-0.24-1.86-0.43c1.43-1.51,0.26-2.09-1.02-2.61c1.38-2.58,0.26-4.64-1.42-7.39
	c0.62-0.35,1.5-0.85,2.38-1.35c-0.12-0.18-0.24-0.35-0.36-0.53c-0.53,0.21-1.06,0.42-1.57,0.62c-0.02-0.09-0.11-0.28-0.05-0.35
	c0.75-1.01,0.58-2.1,0.59-3.29c0.06-4.42,0.12-8.87,0.66-13.25c0.84-6.73,1.67-13.5,3.28-20.07c1.33-5.43,4.04-10.51,5.62-15.91
	c0.7-2.39,2.88-4.56,1.76-7.43c-0.08-0.2,0.54-0.62,0.77-0.99c3.02-4.76,6.11-9.48,9.01-14.31c1.6-2.67,2.88-5.54,4.33-8.3
	c1.78-3.37,3.48-6.78,5.43-10.04c1.45-2.43,3.37-4.57,4.86-6.98c0.94-1.53,1.48-3.3,2.15-4.99c0.21-0.53,0.12-1.46,0.46-1.63
	c3.84-1.89,4.2-6.28,6.66-9.15c0.31-0.36,0.42-1.38,0.17-1.6c-0.48-0.43-1.34-0.82-1.92-0.69c-2.02,0.44-3.97,1.17-5.98,1.67
	c-4.26,1.06-8.22,3.1-12.8,3.16c-2.92,0.04-5.81,1.19-8.75,1.6c-1.38,0.19-2.85-0.26-4.28-0.34c-2.04-0.12-4.1-0.05-6.12-0.32
	c-1.14-0.15-2.22-0.8-3.45-1.28c-1.23,1.15-2.51,2.11-4.63,1.34c-0.92-0.33-2.3,0.89-3.5,0.96c-4.82,0.25-9.66,0.56-14.47,0.39
	c-3.62-0.13-7.21-1.03-10.82-1.47c-1.65-0.2-3.34-0.04-5-0.2c-3.74-0.35-7.53-0.51-11.17-1.31c-2.88-0.63-3.51-3.04-2.3-5.85
	c0.87-2.02,2.55-3.24,4.09-4.59c1.86-1.64,3.77-3.22,5.77-4.68c1.52-1.11,3.19-2.04,4.83-2.97c2.08-1.17,4.26-2.16,6.28-3.43
	c0.95-0.6,1.49-1.84,2.43-2.48c1.4-0.95,2.9-1.87,4.5-2.34c3.24-0.96,6.55-1.68,9.86-2.35c2.74-0.55,5.54-0.81,8.29-1.34
	c3.03-0.58,6.02-1.32,9.04-1.96c0.36-0.08,0.75,0.08,1.13,0.09c0.56,0.01,1.15,0.08,1.69-0.04c1.49-0.33,2.95-0.77,4.43-1.1
	c0.9-0.2,1.83-0.28,2.75-0.41c0.02-0.2,0.04-0.4,0.07-0.59c0.54,0.44,1.08,0.87,1.62,1.3c1.36-1.84,4.9-2.46,5.67-1.72
	c2.44-0.32,4.4-0.75,6.37-0.8c3.95-0.1,7.91,0.09,11.86-0.02c1.37-0.04,2.71-0.72,4.09-0.94c0.99-0.16,2.02-0.03,3.66-0.03
	c0.78-0.66,2.09-0.99,3.89-0.26c1.1,0.44,2.65-0.27,4-0.39c2.93-0.27,5.86-0.55,8.8-0.7c1.35-0.07,2.72,0.25,4.06,0.17
	c0.71-0.04,1.39-0.55,2.07-0.54c1.32,0,2.8,0.38,3.95-0.07c3.12-1.22,6.26-0.07,9.36-0.5c2.14-0.3,4.28-0.55,6.42-0.8
	c1.03-0.12,2.17-0.51,3.09-0.23c3.13,0.96,5.69-0.88,8.46-1.51c2.01-0.46,3.9-0.05,5.17,1.63c0.38,0.51,0.87,0.98,1.4,1.32
	c3.31,2.12,5.51,5.14,5.91,8.96c0.19,1.8,0.54,3.43,1.03,5.13c0.2,0.69-0.26,1.88-0.82,2.43c-3.45,3.42-6.23,7.59-11.53,8.8
	c-3.15,0.72-6.26,2.1-9.03,3.77c-2.46,1.49-4.34,3.92-6.65,5.71c-1.51,1.18-3.15,2.13-4.64,3.42c-3.66,3.18-6.48,6.99-9.48,10.7
	c-1.37,1.69-3.03,3.14-4.54,4.73c-0.47,0.5-0.97,1.04-1.24,1.66c-0.6,1.38-0.68,3.1-2.77,3.27c-0.4,0.03-0.73,0.69-1.15,0.98
	c-0.48,0.34-1.16,0.96-1.51,0.83c-3.76-1.45-2.97,2.1-4.13,3.57c-1.42,1.81-3.07,3.44-4.68,5.1c-0.93,0.96-2.38,3.43-2.93,4.99
	c-0.13,0.38-0.85,0.53-1.03,0.91c-0.62,1.31-1.12,2.67-1.67,4.03c-0.17-0.12-0.58-0.42-0.99-0.72c-1.09,3.54-1.88,7.04-3.28,10.28
	c-0.95,2.2-2.79,4-4.18,6.02c-0.4,0.58-0.74,1.25-0.91,1.93c-0.9,3.62-2.5,6.84-4.92,9.7c-0.41,0.49-0.16,1.54-0.26,2.82
	c-0.31,0.26-1.04,0.87-1.82,1.52c0.32,0.22,0.6,0.42,1.06,0.74c-1.88,1.25-1.65,2.81-0.82,4.58c0.22,0.47-0.22,1.28-0.4,1.92
	c-0.26,0.91-1.06,2.06-0.75,2.64c0.74,1.4,0.27,2.49-0.06,3.79c-0.26,1.04-0.09,2.19-0.09,3.29c0.02,2.9,0.09,5.79,0.06,8.69
	c-0.01,0.72-0.17,1.51-0.5,2.15c-0.53,1.06-0.88,1.83,0.09,3c0.62,0.75,0.47,2.19,0.54,3.33c0.05,0.86-0.09,1.73-0.17,2.87
	c-2.38,0.28-1.58,1.95-0.63,3.3c0.89,1.27,1.39,2.04-0.2,3.24c-1.17,0.87-0.41,2.35,1.34,2.71c-0.09,0.69-0.18,1.39-0.33,2.54
	c1.14-0.2,2.08-0.36,3.18-0.55c-0.12,1.37-0.25,2.93-0.42,4.93c0.87-0.42,1.32-0.64,1.71-0.84c0.59,1.05,1.72,2.12,1.7,3.17
	c-0.06,2.93,3.28,3.9,3.43,6.59c0.01,0.23,0.36,0.45,0.58,0.64c1.46,1.27,2.91,2.56,4.42,3.78c0.49,0.39,1.21,0.49,1.73,0.86
	c0.8,0.56,2.48-0.19,2.46,1.63c0,0.09,0.48,0.27,0.74,0.25c2.81-0.16,5.22,0.68,7.63,2.21c1.74,1.11,4.05,1.25,5.99,2.11
	c1.03,0.46,2.08,1.37,2.62,2.35c1.44,2.57,3.8,4.02,6.31,4.88c3.05,1.04,4.32,3.07,3.11,6.21c-0.27,0.7-0.17,1.55-0.26,2.46
	c-1.66-1.73-3.18-3.33-4.71-4.93c-1.85,1.29-1.91,2.72-0.46,3.88c-0.38,1.61-0.91,3.04-1.01,4.51c-0.1,1.46,0.28,2.84-1.45,3.77
	c-0.61,0.33-0.5,1.8-1.07,2.42c-1.56,1.68-3.6,2.42-5.91,2.45c-0.47,0.01-0.94,0.23-1.39,0.42c-0.73,0.3-1.44,0.65-2.16,0.97
	C409.88,725.16,409.76,725.08,409.64,725.01z"/>
<path d="M523.7,573.77c-4.31,1.26-2.24,4.83-2.98,7.32c-0.62,2.08-0.13,4.5-0.13,6.76c-0.2-0.12-0.4-0.24-0.6-0.37
	c-0.94,0.84-1.88,1.68-2.82,2.53c0.12,0.16,0.24,0.31,0.37,0.47c-0.41-0.06-1.07-0.32-1.2-0.16c-2.2,2.7-5.18,0.93-7.77,1.35
	c-0.64,0.1-1.4-0.39-2.07-0.69c-1.7-0.76-3.5-1.38-5.05-2.38c-3.33-2.15-6.8-4.22-9.67-6.89c-1.3-1.2-1.31-3.78-1.93-5.73
	c-0.2-0.63-0.28-1.48-0.73-1.82c-2.39-1.81-1.87-4.45-2.15-6.88c-0.11-0.96-0.32-1.9-0.45-2.86c-0.06-0.42-0.2-1.16-0.05-1.24
	c1.9-0.95,1.2-2.62,1.26-4.11c0.09-2.36,1.78-3.74,3.26-5.28c1.48-1.55,3.16-2.54,5.27-3.15c1.04-0.31,1.66-1.76,3.22-1.69
	c2.25,0.1,4.27,0.35,5.85,2.29c0.57,0.7,1.89,0.73,2.66,1.34c1.37,1.09,2.62,2.35,3.85,3.61c0.26,0.27,0.15,1.13,0.36,1.18
	c3.64,1,3.72,4.63,5.34,7.11C519.5,567.52,521.52,570.51,523.7,573.77z"/>
<path d="M491.31,594.7c-0.93,1.49-2.03,2.88-0.7,4.68c0.19,0.25-0.03,1.19-0.12,1.2c-2.66,0.24-1.4,2.16-1.52,3.48
	c-0.12,1.33-0.26,2.65-0.4,3.99c-2.23,0.32-2.82,2.17-3.51,4.22c-3.07-1.2-5.85-0.11-8.81,0.64c-1.59,0.4-3.7-1.13-5.54-1.89
	c-1.15-0.48-2.19-1.22-3.34-1.7c-1.8-0.75-3.37-1.56-4.55-3.33c-1.03-1.56-2.97-2.49-4.13-3.99c-2.11-2.74-4.05-5.62-5.84-8.57
	c-1.99-3.28-1.31-6.7,1.04-9.86c1.04-1.41,1.64-3.43,1.7-5.2c0.07-2.01,0.82-3.1,2.24-4.42c3.14-2.92,5.97-2,9.01-0.07
	c0.73,0.46,1.63,0.64,2.44,0.99c1.12,0.48,2.3,0.89,3.32,1.53c2.35,1.48,4.75,2.93,6.9,4.68c2.23,1.8,4.35,3.65,5.81,6.37
	C486.74,590.11,489.2,592.23,491.31,594.7z"/>
<path d="M191.57,446.65c-1.11-0.6-2.6,0.06-2.99,1.93c-0.44-0.18-0.88-0.36-1.78-0.73c0.19,1.25,0.33,2.15,0.36,2.36
	c-3.46,1.99-6.81,3.69-9.89,5.77c-2.72,1.84-5.13,4.14-7.73,6.16c-0.66,0.51-1.54,0.73-1.91,0.9c-0.6-1.12-1.41-2.09-1.64-3.17
	c-0.81-3.85-2.69-7.65-0.52-11.7c0.47-0.87,0.18-2.11,0.42-3.14c1.44-6.2,4.18-11.86,7.26-17.39c1.2-2.15,2.03-4.51,3.11-6.74
	c2.47-5.13,4.9-10.29,7.53-15.34c2.24-4.31,4.75-8.48,7.1-12.74c0.86-1.56,1.79-3.13,2.31-4.81c1.48-4.84,4.82-8.39,7.98-12.08
	c3.34-3.89,6.7-7.69,11.63-9.81c1.9-0.82,2.94-0.58,3.12,1.19c0.27,2.64,1.81,5.02,0.82,8c-0.63,1.89,0.29,4.29,0.43,6.46
	c0.05,0.73-0.2,1.47-0.27,2.22c-0.13,1.49-0.19,2.99-0.33,4.48c-0.12,1.18,0.51,2.6-1.34,3.25c-0.36,0.13-0.15,1.86-0.24,3.32
	c3.14-0.45,6.02-0.84,8.89-1.28c1.66-0.25,3.3-0.74,4.97-0.84c4.76-0.29,9.53-0.48,14.3-0.63c2.97-0.09,5.97-0.24,8.93,0.01
	c3.41,0.29,6.79,0.92,10.17,1.52c1.89,0.34,3.72,1.03,5.61,1.37c3.63,0.65,7.28,1.16,10.92,1.75c1.29,0.21,2.74,0.18,3.81,0.8
	c0.81,0.47,1.6,1.81,1.58,2.74c-0.06,2.51-0.41,5.05-0.95,7.51c-0.24,1.12-1.19,2.09-1.83,3.13c-2.09,3.36-4.99,5.58-8.92,6.41
	c-2.94,0.62-5.85,1.39-8.79,1.97c-0.56,0.11-1.23-0.38-1.86-0.52c-0.54-0.12-1.21-0.36-1.64-0.17c-6.24,2.82-12.98,3.62-19.61,4.82
	c-1.87,0.34-1.77,1.5-1.62,2.83c0.78,6.95,1.49,13.92,2.39,20.86c0.35,2.64,1.16,5.22,1.75,7.76c4.67-0.93,8.98-2.03,13.36-2.58
	c4.74-0.6,9.58-1.21,14.3-0.84c4.32,0.34,9.04,0.23,12.8,2.92c2.88,2.06,5.42,4.62,8.01,7.07c0.84,0.79,1.35,1.93,2.01,2.92
	c-1.55,0.13-3.39,3.18-2.99,4.79c0.14,0.56,0,1.25-0.2,1.8c-0.47,1.29-0.72,3-1.67,3.72c-1.87,1.4-4.08,2.54-6.31,3.23
	c-2.5,0.77-4.82,2.07-7.77,1.8c-2.15-0.19-4.44,1.25-6.67,1.96c-0.32,0.1-0.76,0.34-0.96,0.22c-3.07-1.85-6.31,0.41-9.28-0.35
	c-2.7-0.7-5.16,0.15-7.72,0.2c-2.44,0.05-3.97,2.24-3.32,4.59c0.11,0.4,0.03,0.95-0.16,1.33c-0.52,1.07-1.17,2.07-1.7,3.13
	c-0.98,1.93,0.23,4.23,2.41,4.27c5.04,0.09,10.09-0.01,15.13,0.02c0.98,0.01,1.96,0.39,2.94,0.4c2.46,0.03,4.95,0.16,7.38-0.14
	c4.7-0.58,9.21,0.43,13.77,1.14c3.82,0.59,5.81,3.89,7.4,6.49c1.22,1.98,0.28,5.58-0.33,8.32c-1.08,4.86-5.31,6.24-9.45,6.74
	c-4.83,0.58-9.78,0.06-14.63,0.54c-5.3,0.53-10.54,1.65-15.8,2.52c-0.67,0.11-1.33,0.31-2,0.42c-4.75,0.78-4.75,0.78-7.58,4.32
	c1.14,0.98,2.27,1.96,3.41,2.94c-0.15,0.23-0.3,0.46-0.46,0.69c-0.71-0.06-1.41-0.12-2.9-0.25c0.79,1.29,1.31,2.14,1.83,3
	c-0.16,0.03-0.33,0.06-0.49,0.08c0.42,1.36,0.87,2.7,1.25,4.07c0.14,0.52,0.37,1.38,0.13,1.58c-1.32,1.1-0.69,2.31-0.17,3.32
	c1.47,2.88,0.96,4.09-2.07,4.98c-0.69,0.2-1.19,1.06-1.78,1.62c0.27,0.07,0.54,0.14,0.81,0.21c-0.09,1.05-0.27,2.1-0.23,3.14
	c0.02,0.57,0.41,1.13,0.73,1.91c-0.66,0.86-1.55,2.04-2.58,3.39c0.37,0.28,0.94,0.72,1.75,1.33c-0.94,1.92-2.01,3.82-2.78,5.83
	c-0.38,1-0.05,2.24-0.26,3.32c-0.73,3.67-1.55,7.33-2.37,10.99c-0.23,1.02-0.58,2.01-1.33,2.75c-0.27-1.7-0.53-3.41-0.8-5.11
	c-0.33,0.05-0.67,0.1-1,0.15c-0.59,1.04-1.16,2.08,1.41,2.94c-1.35,0.64-2.38,1.14-3.73,1.78c-0.14,0.3-0.55,1.16-0.95,2.01
	c-0.21-0.1-0.43-0.2-0.64-0.3c0.16-0.74,0.33-1.48,0.49-2.22c-0.22-0.11-0.44-0.21-0.66-0.32c-0.59,0.7-1.17,1.4-1.97,2.36
	c-0.43-1.1-0.76-1.94-1.21-3.07c-0.54,0.69-0.91,1.16-1.45,1.85c-1.28-2.13-2.53-4.21-3.79-6.3c-1.39,0.65-2.11,0.98-3.23,1.51
	c0.58-1.11,0.93-1.8,1.39-2.68c-0.88-0.27-1.56-0.48-2.43-0.75c0.26-0.7,0.49-1.35,0.81-2.22c-0.6,0-1.1,0-1.98,0
	c-0.81-3.97-1.47-8.07-2.54-12.06c-0.72-2.66-2.21-5.11-3.01-7.76c-0.41-1.37-0.07-2.97-0.31-4.36c-0.32-2.04-0.68-4.07-0.96-6.12
	c-0.26-1.88-0.47-3.78-0.65-5.67c-0.17-1.8-0.51-3.63-0.37-5.42c0.31-4.09,1-8.14,1.31-12.23c0.53-7.1,1.15-14.22,1.23-21.33
	c0.05-4.96-0.87-9.93-1.12-14.9c-0.2-3.92-0.07-7.85-0.04-11.77c0-0.56,0.26-1.13,0.42-1.69c0.51-1.87,2.02-4.31,1.34-5.48
	c-1.86-3.2,0.65-6.35-0.63-9.36c-0.1-0.23,0.78-0.77,0.77-1.16c-0.02-0.69-0.37-1.37-0.57-2.02c0.68-4.13,1.4-8.43,2.11-12.74
	c0.15-0.95,0.4-1.92,0.32-2.86c-0.05-0.68-0.56-1.32-1-2.24c0.33-0.24,0.98-0.7,1.32-0.95c0-1.39,0-2.55,0-4.42
	c-1.79,0.16-3.84,0.22-5.85,0.56c-0.97,0.16-2.03,0.65-2.76,1.31c-2.47,2.28-2.85,5.8-4.78,8.42c-0.63,0.86-1.3,1.7-2.04,2.45
	c-0.83,0.84-2.42,1.22-1.41,2.99c0.1,0.17-0.8,1-1.33,1.41C194.83,444.28,193.4,445.3,191.57,446.65z"/>
<path d="M125.28,583.72c-0.88,1.76-1.64,3.26-2.62,5.21c-0.46-1.48-0.7-2.26-0.94-3.03c-0.24,0.01-0.48,0.01-0.72,0.02
	c0.22,1.82,0.85,3.83-1.74,4.33c-1.39,0.27-2.6,0.34-2.49-1.64c0.02-0.32,0.14-0.81-0.01-0.93c-5-3.84-3.46-9.92-5.05-14.91
	c-1.19-3.72-2.05-7.58-2.71-11.44c-0.64-3.79-0.8-7.67-1.25-11.5c-0.2-1.74-0.74-3.44-0.89-5.17c-0.2-2.34-0.17-4.7-0.27-7.05
	c-0.05-1.09,0.12-2.31-0.3-3.24c-1.23-2.68-0.91-5.15-0.06-7.88c0.44-1.43-0.32-3.23-0.53-4.86c-0.04-0.33-0.18-0.71-0.07-0.98
	c2.32-5.45,0.72-11.35,1.96-17c0.64-2.88-1.19-6.31-1.92-9.49c-0.07-0.31-0.41-0.57-0.45-0.87c-0.4-2.89-1.46-5.92-0.94-8.64
	c0.58-3.07-0.95-5.72-0.52-8.62c0.4-2.7,0.69-5.42,0.87-8.14c0.11-1.67-0.16-3.37-0.14-5.05c0.07-4.9-0.57-9.66-3.01-14
	c-0.32-0.58-1.44-1.19-2.01-1.06c-2.34,0.56-4.6,1.39-6.89,2.14c-1.82,0.6-3.64,1.22-5.39,2.12c-3.63-0.6-6.44,1.68-9.53,3
	c-1.79,0.76-3.64,1.41-5.53,1.85c-0.54,0.12-1.3-0.69-1.96-1.07c0.35-0.56,0.56-1.33,1.06-1.66c1.65-1.09,1.69-1.03,0.56-2.58
	c1-0.59,2.01-1.19,3.02-1.79c-0.09-0.18-0.19-0.37-0.28-0.55c-0.62,0.23-1.25,0.46-2.28,0.84c1.31-2.22,2.29-4.16,3.53-5.92
	c1.41-2.01,2.39-4.04,2.86-6.53c0.59-3.14,1.69-6.24,2.99-9.17c2.07-4.66,4.44-9.18,6.77-13.72c0.9-1.75,1.97-3.43,3.07-5.07
	c1.43-2.13,2.95-4.2,4.47-6.27c4.02-5.47,7.87-11.08,12.13-16.36c3.97-4.91,8.38-9.46,12.59-14.17c0.91-1.02,2.09-1.89,2.71-3.05
	c2.4-4.45,6.83-6.63,10.57-9.52c2.98-2.3,9.61-0.9,12.42,1.71c4.48,4.16,3.65,9.16,2.44,14.05c-1.07,4.33-3.56,8.36-4.21,12.71
	c-0.65,4.36-2.58,7.99-4.47,11.69c-1.21,2.37-2.13,4.69-2.49,7.31c-0.08,0.58-1.15,0.96-1.57,1.57c-1.11,1.62-2.08,3.33-3.18,4.96
	c-0.73,1.08-1.73,1.99-2.36,3.12c-0.63,1.12-1.41,2.45-1.32,3.63c0.56,8.21,1.35,16.41,2.02,24.62c0.73,8.94,1.62,17.88,2.05,26.84
	c0.28,5.93-0.19,11.9-0.2,17.85c-0.01,2.39,0.46,4.79,0.38,7.17c-0.04,1.16-0.72,2.38-1.36,3.42c-0.92,1.52-0.31,2.55,0.75,3.58
	c0.74,0.72,1.67,1.39,0.34,2.46c-0.24,0.19-0.26,0.79-0.21,1.19c0.72,5.56,1.51,11.11,2.18,16.67c0.39,3.2,0.62,6.42,0.87,9.63
	c0.29,3.67,0.72,7.35,0.71,11.03c-0.01,5.27-0.61,10.55-0.46,15.81c0.09,3.08-1.15,5.03-3.14,7.04c-0.78,0.79-0.74,2.33-1.29,3.42
	c-0.69,1.36-0.83,2.35,0.83,3.04c0.17,0.07,0.2,1.05-0.03,1.38c-0.25,0.36-1.01,0.75-1.34,0.62c-1.6-0.68-1.71,0.52-2,1.47
	c-0.39,1.27-0.84,2.53-1.06,3.84C127.92,584.15,126.79,584.39,125.28,583.72z"/>
<path d="M261.07,786.84c-0.1,0.69-0.22,1.59-0.34,2.48c0.11,0.03,0.22,0.07,0.33,0.1c0.15-0.27,0.3-0.54,0.55-0.98
	c0.24,0.57,0.42,0.99,0.64,1.48c1.24-1.43,1.99,0,2.85,0.41c0.7,0.33,1.24,1,1.94,1.35c1.47,0.74,2.98,1.43,4.51,2.02
	c0.79,0.3,1.66,0.38,2.51,0.51c0.79,0.12,1.61,0.15,2.39,0.31c0.14,0.03,0.18,0.55,0.36,1.18c5.8-2.83,11.5-5.61,17.27-8.43
	c-0.02,0.38-0.04,0.7-0.07,1.14c1.49-0.68,2.83-2.12,4.34-0.24c0.13,0.17,0.92-0.2,1.41-0.31c0.66-0.14,1.32-0.28,1.86-0.39
	c-0.17,1.73,0.06,3.46-0.57,4.77c-0.59,1.23-2.1,2.02-3.22,2.99c-1.18,1.02-2.45,1.94-3.53,3.06c-1.84,1.91-3.39,4.13-5.38,5.85
	c-2.03,1.76-4.4,3.17-6.72,4.56c-2.04,1.22-4.26,2.15-6.33,3.32c-1.22,0.69-2.24,1.73-3.47,2.4c-0.7,0.38-1.65,0.31-3.03,0.54
	c-1.34,1.83-4.8,2.28-7.02,0.44c-0.27-0.22-0.77-0.19-1.17-0.23c-1.79-0.19-3.62-0.18-5.36-0.59c-2.43-0.57-4.83-1.36-7.17-2.24
	c-1.17-0.44-2.18-1.8-3.27-1.8c-1.85,0-2.52-1.44-3.73-2.16c-0.66-0.4-1.17-1.07-1.82-1.69c-0.74,0.26-1.87,1.3-1.63-1.04
	c0.07-0.7-1.2-2.02-2.07-2.25c-1.88-0.5-3.23-1.1-4.23-3.03c-1.3-2.52-3.34-4.66-4.88-7.07c-1.06-1.66-1.85-3.51-2.7-5.3
	c-0.08-0.18,0.3-0.58,0.53-0.99c-0.59-0.16-1.17-0.32-1.5-0.41c-0.12-1.07-0.23-2.02-0.33-3.01c-1.33-0.1-2.15-1.72-1.8-2.56
	c-0.92-1.79-1.87-3.12-2.3-4.61c-0.71-2.49-1.04-5.09-1.59-7.62c-0.52-2.38-1.36-4.72-1.62-7.13c-0.23-2.11,0.21-4.29,0.19-6.44
	c-0.01-1.32,0.1-2.95-0.59-3.87c-1.08-1.43-0.7-2.54-0.31-3.45c-0.6-0.75-1.07-1.34-1.27-1.6c0.37-2.36,0.68-4.35,1.02-6.53
	c-0.22-0.06-0.8-0.22-1.07-0.3c-0.24-0.99-0.43-1.78-0.62-2.56c1.86-0.71,2.08-1.68,0.87-3.33c-0.35-0.47-0.39-1.24-0.39-1.87
	c-0.01-1.57,0.14-3.14,0.13-4.7c-0.02-2.62-0.18-5.24-0.17-7.86c0-0.93,0.47-1.85,0.51-2.79c0.11-2.49-0.17-5.02,0.2-7.46
	c0.44-2.89,0.22-5.87,1.03-8.65c0.54-1.86,0.85-3.53,0.15-5.37c-0.09-0.23,0.5-0.67,0.65-1.05c0.41-1.06,1.14-2.25-0.88-2.72
	c0.42-0.53,0.73-0.93,1.05-1.34c-0.07-0.1-0.14-0.21-0.21-0.31c-0.94,0.45-1.87,0.91-3.14,1.53c-0.77,2.06-1.67,4.47-2.67,7.14
	c-0.73-0.42-1.35-0.77-1.91-1.09c-0.54,0.32-1.15,0.68-1.78,1.05c0.01,0.05-0.02,0.2,0.04,0.29c1.43,1.99,1.42,1.97-0.54,3.26
	c-0.31,0.21-0.47,0.66-0.7,0.99c-0.73,1.09-1.44,2.2-2.21,3.27c-0.25,0.35-0.78,0.53-0.98,0.9c-1.17,2.19-3.56,3.56-4.55,5.6
	c-1.99,4.1-5.71,6.48-8.5,9.74c-1.79,2.09-3.56,4.52-6.34,5.64c-0.11,0.05-0.23,0.14-0.29,0.25c-1.44,2.58-4.39,3.19-6.43,4.98
	c-1.94,1.69-3.87,3.4-5.69,5.21c-2.58,2.57-5.14,5.17-7.55,7.9c-1.82,2.06-3.5,4.28-5.01,6.58c-0.49,0.74-0.26,1.97-0.3,2.98
	c-0.04,1.12-0.01,2.25-0.29,3.39c0.86,1.2,1.09,2.53,0.72,4.17c-0.44,1.96-0.58,4-0.76,6.01c-0.04,0.38,0.39,0.78,0.46,1.19
	c0.12,0.7,0.28,1.44,0.15,2.12c-0.19,0.97-0.67,1.89-0.93,2.85c-0.32,1.17-0.66,2.35-0.75,3.55c-0.12,1.6,0.1,3.23-0.03,4.84
	c-0.09,1.19-0.49,2.36-0.77,3.54c-0.06,0.24-0.35,0.48-0.31,0.67c0.78,3.54,0.05,6.82-1.53,10c-0.12,0.24,0.13,0.65,0.18,0.98
	c0.07,0.43,0.22,0.88,0.15,1.28c-0.39,2-0.92,3.98-1.25,5.99c-0.41,2.54-0.69,5.11-1,7.67c-0.17,1.36-0.21,2.74-0.45,4.09
	c-0.19,1.05-0.49,2.11-0.96,3.06c-0.81,1.63-0.57,3.49-1.99,5.12c-1.08,1.25-0.91,3.76-0.89,5.71c0.01,1.57-0.59,2.44-1.73,3.33
	c-0.83,0.64-2.04,1.59-0.01,2.52c0.4,0.18,0.4,1.22,0.64,2.04c-2.1,0.12-3.8,0.15-5.49,0.35c-0.51,0.06-0.97,0.56-1.78,1.05
	c0.37-3.11,0.45-6.04-1.8-7.93c0.49-0.91,1.1-1.53,1.09-2.14c-0.02-0.72-0.52-1.52-1.57-0.8c-0.05,0.04-0.52-0.36-0.63-0.62
	c-0.55-1.37-1.26-2.73-1.51-4.17c-0.63-3.6-1.12-7.24-1.51-10.88c-0.16-1.52,0.22-3.1,0.13-4.64c-0.14-2.39-0.55-4.76-0.69-7.15
	c-0.07-1.22,0.36-2.47,0.26-3.68c-0.15-1.88-0.58-3.73-0.86-5.6c-0.47-3.22-0.91-6.43-1.34-9.65c-0.04-0.28,0.12-0.6-0.17-1.23
	c-1.22,1.09-2.39,2.25-3.67,3.26c-0.63,0.49-1.47,0.69-2.37,0.65c-0.61,0.67-1.16,1.41-1.84,1.99c-1.74,1.48-3.51,2.94-5.34,4.32
	c-2.15,1.62-4.34,3.2-6.6,4.68c-1.08,0.71-2.38,1.08-3.5,1.73c-0.53,0.31-0.83,1.01-1.34,1.39c-0.88,0.66-1.88,1.17-2.77,1.83
	c-1.97,1.46-3.84,3.05-5.88,4.4c-0.51,0.34-1.48-0.02-2.61-0.09c0.49-0.71,0.72-1.04,1.22-1.78c-1.24-0.1-2.24-0.18-3.24-0.26
	c2.62-1.2,1.54-4.05,2.71-5.96c-0.45,0.16-0.88,0.31-1.3,0.47c-0.18-0.1-0.36-0.2-0.54-0.3c0.89-1.9,1.76-3.81,2.66-5.71
	c0.85-1.81,1.81-3.59,2.56-5.44c0.55-1.37,0.43-3.28,1.35-4.19c1.55-1.52,2.04-3.58,3.38-5.15c4.76-5.54,9.74-10.92,14.12-16.75
	c2.91-3.88,6.51-7.43,7.71-12.49c0.24-1.02,1.75-1.73,2.79-2.69c-0.23-0.3-0.56-0.73-0.87-1.14c0.05-0.17,0.04-0.33,0.12-0.4
	c1.97-1.84,3.06-4.2,3.91-6.68c0.31-0.91,0.45-1.88,0.73-3.11c-1.58-0.94-1.89-2.26-0.26-4.14c0.49-0.57-0.04-2.02-0.11-3.06
	c-0.06-1.03-0.09-2.07-0.2-3.1c-0.05-0.48-0.26-0.95-0.4-1.41c0.11-0.57,2.08-0.36,0.5-1.77c-0.68-0.61-0.35-2.55-0.2-3.85
	c0.13-1.08,0.88-2.1,0.93-3.17c0.03-0.56-0.86-1.16-1.5-1.95c0.28-0.69,0.72-1.79,1.15-2.86c-0.94-1.26-2.03-2.46-0.37-3.93
	c0.15-0.13,0.14-0.47,0.15-0.72c0.12-2.28,0.23-4.55,0.33-6.83c0.02-0.37,0.11-0.86-0.07-1.1c-1.16-1.55-1.03-3.03-0.08-4.63
	c0.22-0.37,0.02-1-0.01-1.51c-0.19-2.85-0.38-5.7-0.59-8.54c-0.17-2.3-0.29-4.57,0.36-6.85c0.17-0.58-0.14-1.84-0.42-1.91
	c-0.89-0.2-1.89-0.06-2.8,0.13c-0.7,0.15-1.32,0.68-2.02,0.85c-3.53,0.88-7.09,1.65-10.62,2.55c-2.04,0.52-4.02,1.61-6.06,1.73
	c-3.92,0.24-7.88-0.01-11.82-0.11c-1.44-0.04-1.98-1.22-1.19-2.06c1.8-1.91,1.79-4.54,3.11-6.56c1.07-1.64,2.08-3.37,4.34-4
	c1.04-0.29,1.63-1.94,2.63-2.7c5.18-3.96,11.04-6.69,17.03-9.14c2.5-1.03,5.16-1.68,7.56-2.44c0.31-5.13,0.56-10.39,0.96-15.64
	c0.25-3.38,0.64-6.76,1.11-10.12c0.34-2.45,0.59-5.02,2.68-6.78c1.68-1.41,3.44-2.72,5.14-4.11c0.21-0.17,0.29-0.52,0.25-0.44
	c1.3,0.47,2.68,0.61,3.51,1.35c1.59,1.41,4.63,0.32,5.27,3.05c0.26,1.1,0,2.31,0.03,3.47c0.03,1.04-0.04,2.12,0.22,3.1
	c0.8,3.03,1.77,6.01,2.62,9.02c0.49,1.71,0.95,3.42,1.3,5.16c0.2,1.02,0.2,2.09,0.19,3.14c-0.01,1.18,0.53,1.44,1.57,1.16
	c4.06-1.1,8.1-2.3,12.2-3.22c4.01-0.9,8.08-1.59,12.14-2.23c3.4-0.53,6.32,0.53,8.58,3.19c0.16,0.19,0.25,0.53,0.44,0.61
	c4.45,1.63,3.85,5.71,4.22,9.13c0.46,4.2-0.96,8.2-1.86,12.27c-0.53,2.38-0.9,4.8-1.65,7.14c-0.08,0.24-0.05,0.53-0.17,0.73
	c-1.08,1.78-2.34,3.47-3.24,5.33c-0.75,1.55-0.91,3.39-1.65,4.95c-0.67,1.4-0.57,2.73-0.35,4.13c0.03,0.21,0.23,0.4,0.73,0.55
	c0-0.95,0-1.9,0-2.85c0-1.55,1.14-2.42,2.87-1.99c-0.85-2.21,1.29-1.88,2.17-2.46c1.59-1.04,3.18-1.93,4-3.79
	c0.17-0.4,0.85-0.58,1-0.98c2.86-3.55,5.74-7.08,8.58-10.64c2.77-3.46,6.16-6.32,9.47-9.29c1.83-0.26,3.52-0.98,4.88-2.71
	c0.51-0.65,1.59-0.86,2.43-1.25c3.28-1.51,6.56-3.01,10.02-4.59c1.02,1.51,1.94,2.87,2.97,4.41c0.79-0.3,1.64-0.45,2.26-0.91
	c1.15-0.85,1.44,0.06,1.76,0.75c0.47,1.03,0.75,2.14,1.23,3.16c0.14,0.31,0.67,0.44,1.16,0.74c0.32,2.17,0.81,4.61,1.02,7.07
	c0.15,1.72,1.21,3.57-0.4,5.21c-0.17,0.18,0.02,0.72,0.05,1.08c0.29,2.9,0.49,5.82,0.9,8.71c0.38,2.71,1.05,5.38,1.47,8.09
	c0.2,1.29,0.11,2.63,0.16,3.95c0.13,3.56,0.82,7.14-0.49,10.63c-0.03,0.09,0.03,0.27,0.11,0.35c2.04,2,0.33,3.6-0.82,5.49
	c0.72,0,1.18,0,1.96,0c-0.82,1.24-1.52,2.31-2.43,3.68c0.4,0.42,1.15,1.21,1.89,1.99c-0.06,0.1-0.11,0.2-0.17,0.3
	c-0.38-0.16-0.76-0.31-1.14-0.46c0,1.33-0.04,2.69,0.01,4.04c0.09,2.36,0.22,4.71,0.39,7.06c0.14,2.02-0.09,4.21,0.65,6
	c0.8,1.94,0.15,2.68-1.51,3.57c0.93,1.19,1.82,2.32,2.7,3.44c-0.55,1.42-1.15,2.96-1.81,4.66c1.05,0.8,1.24,1.97,1.31,3.52
	c0.1,2.12,1.09,4.21,1.76,6.53c-0.26,0.18-0.86,0.58-1.61,1.1c4.04,3.61,3.75,8.45,4.13,13.16c0.44-0.28,0.75-0.48,1.29-0.83
	c0.11,1.12,0.19,2.03,0.28,2.94c1.21,2.27,1.23,2.76-0.41,4.93c0.64-0.21,1.05-0.34,1.58-0.51c0.25,0.74,0.48,1.38,0.74,2.14
	c0.23-0.16,0.53-0.38,1.06-0.76c-0.11,2.23,0.81,3.6,2.3,4.98c1.02,0.94,1.15,2.82,1.78,4.24c0.74,1.68,1.53,3.35,2.44,4.94
	C259.46,786.38,260.23,786.46,261.07,786.84z M158.17,692.76c0.18,0.05,0.35,0.11,0.53,0.16c1.04-1.84,2.13-3.64,3.09-5.52
	c0.93-1.81,1.65-3.74,2.62-5.53c1-1.83,2.3-3.49,3.29-5.32c1.96-3.62,3.85-7.27,5.64-10.97c0.79-1.64,1.28-3.44,1.9-5.16
	c-0.2-0.22-0.4-0.43-0.61-0.65c-5.49,1.67-10.98,3.35-16.7,5.09c0,2.67-0.06,5.52,0.02,8.36c0.08,3.01,1.72,6.06-0.36,8.61
	c0.58,0.83,1.34,1.42,1.32,1.98C158.77,686.8,158.44,689.78,158.17,692.76z"/>
</svg>
